<svg id="svg" version="1.1" viewBox="0 0 300 275.5364806866953" width="300" height="275.5364806866953" xmlns="http://www.w3.org/2000/svg"><svg xmlns="http://www.w3.org/2000/svg"><defs><clipPath id="clip-1"><rect x="0" y="0" transform="scale(0.16094,0.16094)" width="1864" height="1712" fill="none"/></clipPath><linearGradient x1="103.76749" y1="190.83476" x2="98.08503" y2="187.57886" gradientUnits="userSpaceOnUse" id="color-1"><stop offset="0" stop-color="#a8aa97"/><stop offset="1" stop-color="#a2a0a3"/></linearGradient><linearGradient x1="80.74877" y1="95.13879" x2="100.64453" y2="123.86427" gradientUnits="userSpaceOnUse" id="color-2"><stop offset="0" stop-color="#c49a76"/><stop offset="1" stop-color="#756995"/></linearGradient><linearGradient x1="70.79163" y1="80.2463" x2="71.96234" y2="81.08755" gradientUnits="userSpaceOnUse" id="color-3"><stop offset="0" stop-color="#646567"/><stop offset="1" stop-color="#75756b"/></linearGradient><linearGradient x1="197.34013" y1="85.77248" x2="166.62232" y2="119.91035" gradientUnits="userSpaceOnUse" id="color-4"><stop offset="0" stop-color="#cc8751"/><stop offset="1" stop-color="#ddb36a"/></linearGradient><linearGradient x1="157.06545" y1="102.63476" x2="154.9471" y2="103.94083" gradientUnits="userSpaceOnUse" id="color-5"><stop offset="0" stop-color="#656a79"/><stop offset="1" stop-color="#869299"/></linearGradient><linearGradient x1="24.33203" y1="127.84812" x2="59.68085" y2="120.32784" gradientUnits="userSpaceOnUse" id="color-6"><stop offset="0" stop-color="#4d475f"/><stop offset="1" stop-color="#6f5985"/></linearGradient></defs><g clip-path="url(#clip-1)" fill="none" fill-rule="nonzero" stroke="none" stroke-width="1" stroke-linecap="butt" stroke-linejoin="miter" stroke-miterlimit="10" stroke-dasharray="" stroke-dashoffset="0" font-family="none" font-weight="none" font-size="none" text-anchor="none" style="mix-blend-mode: normal"><path d="M173.1824,207.99946c2.00054,-1.71245 4.2956,-3.00966 6.36534,-4.62071c1.46942,-1.1427 2.81652,-2.43991 4.27468,-3.59871c2.22747,-1.76556 4.53219,-3.42167 6.74678,-5.20815c2.1824,-1.76234 5.99678,-5.32564 8.41899,-6.32511c1.7044,-0.70333 20.5574,-0.30901 23.92275,-0.2897l36.85783,0.20118c1.42597,-0.02414 2.3868,-0.05311 3.81599,0.11105c-1.62393,0.42489 -6.647,1.35354 -8.3691,1.5338c-0.95762,0.33959 -7.84764,1.44206 -9.13358,1.65612c-9.54399,1.59335 -19.9941,3.62607 -29.60408,4.54667c0.00483,1.19742 -0.24142,2.46245 -0.52629,3.62607c0.0177,1.47586 -0.17382,5.34174 0.29775,6.46191l0.19474,0.1706c0.50215,0.11427 1.12339,0.14646 1.36642,0.57135c0.62124,1.08155 0.28165,3.3573 0.19635,4.60944c-1.10569,0.01288 -2.79399,0.0676 -3.81599,-0.25268c-0.37178,-0.02575 -0.65504,-0.03058 -0.98176,0.18187c-2.71191,1.75107 -5.49785,3.88841 -8.08584,5.7956c-4.32296,3.17704 -8.59764,6.42167 -12.82082,9.7323c-2.01663,1.55955 -4.06867,3.1191 -6.06599,4.70279c-2.43187,1.92972 -1.3133,2.95333 -1.88788,5.47049c-1.95386,0.3074 -3.20762,0.3235 -5.18884,-0.00805c-1.71406,1.14592 -3.31384,2.56223 -4.98444,3.79185c-6.99142,5.15343 -13.63503,10.71727 -20.67087,15.8176c-2.73637,1.98283 -5.33176,4.43079 -8.14345,6.29775c-0.02704,1.2956 -0.02318,2.81813 -0.09512,4.09281c-0.36389,0.28326 -4.7485,0.26234 -5.54131,0.272c0.05633,-1.23283 -0.0552,-3.16577 -0.09335,-4.45333c-1.55971,-0.97693 -3.86717,-2.79399 -5.39903,-3.92382l0.71266,-0.44903c1.40569,1.18938 3.43004,3.03541 5.06363,3.70815l2.45295,-0.24624c0.272,-0.63412 -0.03863,-4.73176 -0.07339,-5.79882c-0.12264,-4.81706 -0.17994,-9.63573 -0.17189,-14.45601c-0.01561,-2.21137 -0.35939,-7.53219 0.54898,-9.33798c0.98144,-1.40665 2.36749,-2.63466 3.74308,-3.65182c7.16813,-5.30472 13.8478,-11.20815 21.15692,-16.32135c1.50483,-1.05258 3.11427,-2.1985 4.49678,-3.3927c-0.47639,-0.57779 -0.96567,-0.91416 -0.64861,-1.66094l0.38466,-0.08208c0.63734,0.17382 0.74356,0.30901 1.28433,0.72586z" fill="#664a82"/><path d="M134.94496,258.51341c1.40569,1.18938 3.43004,3.03541 5.06363,3.70815l2.45295,-0.24624c0.43519,0.17704 0.32929,0.07403 0.63863,0.37822l-0.07403,0.31062c-0.3066,0.1867 -0.59871,0.15773 -0.9647,0.17543c0.64394,0.08208 1.74126,0.04506 2.19979,0.36373c0.23385,0.48283 0.1904,0.60193 0.17302,1.16202c0.13214,-0.64378 0.04378,-0.79506 0.42441,-1.16845c0.43825,0.63734 0.15499,2.85354 0.40735,3.87071c-0.36389,0.28326 -4.7485,0.26234 -5.54131,0.272c0.05633,-1.23283 -0.0552,-3.16577 -0.09335,-4.45333c-1.55971,-0.97693 -3.86717,-2.79399 -5.39903,-3.92382z" fill="#363b3d"/><path d="M142.06143,262.83959c0.64394,0.08208 1.74126,0.04506 2.19979,0.36373c0.23385,0.48283 0.1904,0.60193 0.17302,1.16202c-0.08466,0.99464 -0.05601,1.20064 0.09914,2.18562c-1.44447,-0.02253 -2.44378,0.00161 -3.88632,0.08852c0.028,-1.21513 -0.07403,-2.50107 -0.14501,-3.71942z" fill="#f9f8f8"/><path d="M216.44421,206.26448c0.50215,0.11427 1.12339,0.14646 1.36642,0.57135c0.62124,1.08155 0.28165,3.3573 0.19635,4.60944c-1.10569,0.01288 -2.79399,0.0676 -3.81599,-0.25268l-0.36052,-0.31867l0.09174,-0.40558c-0.66792,-0.93991 -0.5118,-2.45279 -0.52146,-3.65343c0.91899,0.02414 1.68026,0.07725 2.58959,-0.08047l-0.04828,-0.29775z" fill="#f9f8f8"/><path d="M216.44421,206.26448c0.50215,0.11427 1.12339,0.14646 1.36642,0.57135c0.62124,1.08155 0.28165,3.3573 0.19635,4.60944c-1.10569,0.01288 -2.79399,0.0676 -3.81599,-0.25268l-0.36052,-0.31867l0.09174,-0.40558c2.80687,0.37339 4.55955,0.19957 3.14163,-3.04989c-0.21727,-0.49893 -0.62124,-0.5279 -1.0735,-0.68401l-0.04828,-0.29775z" fill="#484f62"/><path d="M215.87607,195.99142c0.10622,0 0.52629,-0.00322 0.60193,0.01448c0.00483,1.19742 -0.24142,2.46245 -0.52629,3.62607c-0.23981,-0.4265 -0.39592,-0.61964 -0.44099,-1.11052c-1.97318,-0.48605 -1.76878,-2.55901 0.36534,-2.53004z" fill="#f9f8f8"/><path d="M215.87607,195.99142c0.10622,0 0.52629,-0.00322 0.60193,0.01448c0.00483,1.19742 -0.24142,2.46245 -0.52629,3.62607c-0.23981,-0.4265 -0.39592,-0.61964 -0.44099,-1.11052c0.11427,-0.84335 0.23659,-1.6883 0.36534,-2.53004z" fill="#484f62"/><path d="M259.76878,188.15826c1.42597,-0.02414 2.3868,-0.05311 3.81599,0.11105c-1.62393,0.42489 -6.647,1.35354 -8.3691,1.5338l-0.15612,-0.12071c0.94796,-0.59388 1.88948,-0.25912 2.68616,-0.77575l-0.08691,-0.17221c-0.72908,-0.25268 -1.97639,-0.14163 -2.93562,-0.34442c1.60783,-0.02897 3.47318,-0.00644 5.0456,-0.23176z" fill="#2d1f34"/><path d="M172.16202,209.01663c-0.47639,-0.57779 -0.96567,-0.91416 -0.64861,-1.66094l0.38466,-0.08208c0.63734,0.17382 0.74356,0.30901 1.28433,0.72586c-0.27682,0.5118 -0.47961,0.72425 -1.02039,1.01717z" fill="#666a94"/><path d="M185.72639,217.29882c-0.25912,0.56652 -2.47371,2.73283 -2.97264,3.09657l-0.21727,-0.14485c-0.90451,-2.63144 0.272,-9.35891 3.95118,-9.103c0.09818,1.08959 -0.04185,1.40182 -0.77414,2.25966c-0.18026,0.20762 -0.36695,0.4088 -0.55848,0.60515c-0.03219,0.30097 -0.07082,0.40236 -0.22049,0.6647l0.53755,0.32833c0.70976,0.73552 0.70494,1.38895 0.25429,2.29345z" fill="#876a89"/><path d="M185.4721,215.00536c0.70976,0.73552 0.70494,1.38895 0.25429,2.29345c-1.27146,0.92865 -1.9941,1.70923 -2.99839,2.90343c-0.32833,-3.55365 0.43938,-2.82135 2.7441,-5.19689z" fill="#9d7594"/><path d="M185.15504,214.01234c-0.75644,0.37822 -1.34549,1.33745 -2.37715,1.2103c-0.17543,-1.19742 2.54131,-3.75161 3.70976,-4.07511c0.09818,1.08959 -0.04185,1.40182 -0.77414,2.25966c-0.18026,0.20762 -0.36695,0.4088 -0.55848,0.60515z" fill="#9d7594"/><path d="M178.56438,216.21084c0.9367,0.19635 1.62876,0.6132 1.71888,1.58691c-0.18026,0.60676 -0.57457,0.80955 -1.0912,1.21191c-0.02736,1.07833 -0.07886,2.49946 -0.0177,3.55043c0.12393,2.1309 0.56491,3.47157 0.25107,5.61695c-0.31062,0.30901 -0.89324,0.55687 -1.33101,0.44742c-0.10461,-0.30901 -0.10944,-3.0853 -0.06438,-3.56491c0.17865,-1.94099 -0.57779,-7.43079 0.53433,-8.84871z" fill="#9d7594"/><path d="M148.44303,239.95655c0.0383,-0.89002 1.10762,-1.65933 2.02114,-1.28112c0.28873,0.12232 0.50987,0.36534 0.60515,0.66309c0.49265,1.51448 -3.14034,3.27521 -4.30944,3.80633c-0.73069,0.46996 -0.62366,0.56652 -1.35692,0.53755c-0.56153,-0.39753 -0.3758,-0.14646 -0.61159,-0.75644c0.11137,-1.3133 0.40864,-1.76878 1.67961,-1.87983c0.41668,-0.08208 1.11679,-0.42811 1.53106,-0.6132z" fill="#876a89"/><path d="M146.75987,243.14485c-0.73069,0.46996 -0.62366,0.56652 -1.35692,0.53755c-0.56153,-0.39753 -0.3758,-0.14646 -0.61159,-0.75644c0.11137,-1.3133 0.40864,-1.76878 1.67961,-1.87983c0.3927,0.36052 0.64796,0.58906 0.99158,0.99464c-0.08176,0.60354 -0.20295,0.5456 -0.70268,1.10408z" fill="#876a89"/><path d="M148.44303,239.95655c0.0383,-0.89002 1.10762,-1.65933 2.02114,-1.28112c0.28873,0.12232 0.50987,0.36534 0.60515,0.66309c0.49265,1.51448 -3.14034,3.27521 -4.30944,3.80633c0.49973,-0.55848 0.62092,-0.50054 0.70268,-1.10408c-0.34362,-0.40558 -0.59887,-0.63412 -0.99158,-0.99464c0.41668,-0.08208 1.11679,-0.42811 1.53106,-0.6132c0.10268,0.65665 0.24238,0.92704 0.84286,1.20064c1.16395,-0.10622 2.47017,-1.76073 1.83251,-2.82618c-0.96905,-0.29775 -1.5243,0.51663 -2.23439,1.14914z" fill="#6c587a"/><path d="M180.61481,232.42114c3.06438,-0.25751 3.7838,1.88466 2.02468,4.19421c-1.71406,0.22049 -1.92811,-0.13036 -2.94367,-1.38895c0.28004,-1.11695 0.36052,-1.78809 0.91899,-2.80526z" fill="#d3d6e6"/><path d="M185.52521,219.3074c0.51019,0.39753 0.46674,1.64002 0.52468,2.29506c-0.84657,1.30204 -1.84925,2.08584 -3.04828,3.05794l-0.22371,-0.15451c-0.1883,-0.6647 -0.21084,-1.83798 -0.25268,-2.56706c1.04775,-0.82242 2.01663,-1.73337 3,-2.63144z" fill="#876a89"/><path d="M163.05418,234.76448c0.07403,-0.00966 0.71137,-0.23176 0.82564,-0.272c-0.51341,0.55043 -0.70494,0.63412 -0.72747,1.31813l0.44582,0.68884l0.20118,0.01448c0.39592,-0.41845 0.63412,-0.73552 1.15719,-0.97854c0.72425,-0.07403 0.50697,-0.15612 1.06223,0.14968c0.5633,0.86427 0.33959,1.79775 -0.49893,2.39485c-1.50161,-0.20923 -1.39539,1.37285 -2.48498,1.5853c-0.4603,-0.69206 0.05633,-2.22264 0.08369,-2.99195c0.02092,-0.60998 -0.02414,-1.29721 -0.06438,-1.9088z" fill="#876a89"/><path d="M164.95655,235.53541c0.72425,-0.07403 0.50697,-0.15612 1.06223,0.14968c0.5633,0.86427 0.33959,1.79775 -0.49893,2.39485l-0.36856,-0.29936c-0.39592,-0.85139 -0.48605,-1.35515 -0.19474,-2.24517z" fill="#876a89"/><path d="M191.61695,206.31599c0.27361,0.00322 0.13358,-0.02736 0.40075,0.22371c0.12876,1.51448 -1.40504,3.98337 -2.56223,4.86856c-1.27307,-0.5971 -0.47639,-2.40773 0.08047,-3.27521c0.60354,-0.93991 1.12822,-1.30526 2.08101,-1.81706z" fill="#9d7594"/><path d="M191.25322,216.42167c0.47639,-0.02897 0.61803,0.06438 0.94152,0.40075c0.2559,1.54024 -1.59657,2.90665 -2.68455,3.74839c-0.43455,0.13519 -0.5794,0.08047 -0.90129,-0.14163c-0.1883,-1.73659 1.3632,-3.07886 2.64431,-4.00751z" fill="#9d7594"/><path d="M184.75107,206.72961c2.46727,1.03648 -0.86749,3.82564 -1.40182,5.25322l-0.08691,0.2382c-0.27521,0.02736 -0.21567,0.00483 -0.50054,-0.08208c-0.79989,-1.46781 0.87715,-4.35354 1.98927,-5.40933z" fill="#9d7594"/><path d="M191.92758,211.28916l0.16416,0.20923c0.22049,2.07618 -1.10891,3.74517 -2.92275,4.57725c-1.91524,-2.51556 1.59335,-3.12876 2.75858,-4.78648z" fill="#9d7594"/><path d="M191.74893,201.45869c1.55955,1.03648 -1.43562,4.11856 -2.27414,4.875c-1.16845,-2.68938 0.19796,-3.34925 2.27414,-4.875z" fill="#9d7594"/><path d="M201.52629,194.51234c2.72157,0.37178 1.47747,2.44474 0.06921,3.60193c-0.50376,0.25429 -0.61803,0.36534 -1.10408,0.18509c-0.68884,-1.1926 0.08369,-2.93562 1.03487,-3.78702z" fill="#c290a0"/><path d="M180.50858,210.44903c0.38305,0.103 0.21567,0.00966 0.50376,0.32028c0.13197,0.74839 -0.05311,1.48552 -0.17704,2.25c-1.28273,0.84657 -1.54667,1.20064 -2.55579,2.34818l-0.26556,-0.07725c-0.84496,-1.35515 1.5,-3.99303 2.49464,-4.8412z" fill="#9d7594"/><path d="M201.82082,199.08798c0.77253,0.02414 0.66953,-0.10461 1.12822,0.28648c0.43455,1.34388 -0.21567,2.66202 -1.46298,3.27361c-0.57779,-0.09818 -0.62446,-0.08369 -1.04614,-0.45869c-0.65987,-1.32296 0.32028,-2.39968 1.3809,-3.10139z" fill="#c290a0"/><path d="M164.67167,222.84335c0.37017,-0.4941 0.57457,-0.91255 1.13948,-1.07994c1.02521,0.43455 0.54077,1.99249 -0.14324,2.63305c-1.21996,0.06921 -1.49678,1.53863 -2.55258,1.68187c-0.9367,-1.3294 0.57618,-2.39968 1.55633,-3.23498z" fill="#876a89"/><path d="M164.67167,222.84335c0.37017,-0.4941 0.57457,-0.91255 1.13948,-1.07994c1.02521,0.43455 0.54077,1.99249 -0.14324,2.63305c-0.6309,-0.31223 -0.63734,-0.75161 -0.99624,-1.55311z" fill="#9d7594"/><path d="M201.87715,207.80794c0.47639,-0.04989 0.65182,-0.11749 1.06706,0.11749c0.59871,1.29238 -0.46352,2.45762 -1.50322,3.13036l-0.57618,-0.06438c-1.45976,-1.11695 -0.40558,-2.60891 1.01234,-3.18348z" fill="#c290a0"/><path d="M159.92994,234.30901c0.81583,-0.04185 1.10279,-0.08852 1.67897,0.52629c0.24142,0.92221 -0.69399,2.21459 -1.1905,3.15129c-0.45547,0.45064 -0.19941,0.32994 -0.74276,0.47479l-0.24286,-0.21888c-0.36438,-1.10891 0.20955,-2.77629 0.49716,-3.93348z" fill="#876a89"/><path d="M144.9412,248.05687c-0.06663,-0.71942 -0.21357,-1.48873 0.22339,-2.08262c0.80166,-1.08798 2.07425,-0.9383 2.90939,-0.03863c-0.88471,0.50376 -1.99362,2.7618 -3.01545,2.728z" fill="#876a89"/><path d="M146.70756,249.21406c1.82881,0.66309 0.55252,2.95815 -0.43294,3.86105c-0.66341,-0.08691 -0.41314,0.05955 -0.82629,-0.35569c-0.21389,-0.69367 -0.02994,-1.3632 0.08289,-2.10354z" fill="#876a89"/><path d="M201.86749,203.36588c0.60032,0.00966 0.36212,-0.08691 0.8015,0.16899c0.67758,1.35676 0.05472,2.53165 -1.24088,3.14646c-0.16416,-0.04345 -0.45547,-0.16416 -0.62768,-0.22854c-0.89163,-1.25054 0.14646,-2.2162 1.06706,-3.08691z" fill="#c290a0"/><path d="M152.42124,236.58637c0.50311,-0.02897 0.86186,-0.11588 1.27741,0.14002c0.65198,0.93991 0.62205,2.17275 -0.24705,2.94045c-1.46685,-0.56974 -2.461,-1.81223 -1.03036,-3.08047z" fill="#876a89"/><path d="M148.07398,245.93562l0.18686,-0.28165c-0.70139,-1.51931 0.99126,-2.60086 2.24775,-2.94689c1.01363,1.98766 -0.81567,2.85515 -2.4346,3.22854z" fill="#876a89"/><path d="M161.24356,224.97908l0.33637,0.18991c0.65343,1.22157 -1.02216,2.78916 -1.83058,3.5794l-0.21422,-0.03058c-0.44405,-0.5633 -0.12859,-1.87822 0.11733,-2.48981c0.35182,-0.87554 0.7574,-0.9383 1.59109,-1.24893z" fill="#876a89"/><path d="M170.01341,218.65397l0.35569,0.14163c1.02361,1.47103 -0.56009,2.66524 -1.62232,3.60354l-0.24785,-0.02253c-1.06867,-1.17328 0.72264,-2.90504 1.51448,-3.72264z" fill="#9d7594"/><path d="M161.30472,229.63197c0.3573,0.13036 0.19957,0.06921 0.49571,0.42489c0.16738,0.70011 -1.30671,2.78755 -1.77328,3.65504c-0.9449,-0.33959 -0.84624,-1.61105 -0.45,-2.34013c0.47913,-0.88197 0.94861,-1.18777 1.72758,-1.73981z" fill="#876a89"/><path d="M168.89002,232.36803c0.42006,-0.01127 0.65343,-0.06438 1.01717,0.14163c0.73552,1.13948 0.14324,2.3015 -0.89646,2.99678c-1.67382,-0.87554 -1.28916,-2.03433 -0.12071,-3.13841z" fill="#9d7594"/><path d="M169.7221,227.86481c0.43616,0.00322 0.41202,0.00483 0.82242,0.16094c0.80472,1.25376 -0.45708,2.20655 -1.45976,2.76663c-0.35408,0.09657 -0.21727,0.08208 -0.58584,0.02736l-0.20601,-0.31867c-0.11427,-1.3117 0.32028,-2.03755 1.42918,-2.63627z" fill="#876a89"/><path d="M153.15097,231.67275c0.93525,0.37822 0.81422,1.39217 0.40236,2.12124c-0.46915,0.83047 -0.87457,0.84174 -1.72613,1.06062c-0.41009,-0.41041 -0.41894,-0.37983 -0.55832,-0.92704c0.18299,-1.10086 0.98208,-1.52575 1.88208,-2.25483z" fill="#876a89"/><path d="M149.95027,246.82886c0.48171,0.16094 0.50553,0.25268 0.79587,0.66148c0.27167,1.32457 -0.4492,1.7382 -1.47183,2.32564l-0.34442,0.01609c-0.5823,-0.29775 -0.40992,-0.07564 -0.59662,-0.63412c0.20086,-1.11856 0.81389,-1.64163 1.61701,-2.3691z" fill="#876a89"/><path d="M169.22157,223.73015c0.55204,-0.05311 0.69206,-0.10139 1.20869,0.04667c0.65987,0.85139 -0.27361,1.59979 -0.89646,2.21137c-0.52468,0.33798 -0.37661,0.3573 -0.89002,0.33315l-0.29453,-0.37017c-0.23176,-1.01395 -0.08047,-1.77682 0.87232,-2.22103z" fill="#876a89"/><path d="M153.68707,244.42918l0.28358,0.22854c0.67403,1.44367 -0.26475,2.35783 -1.49131,3.00805c-1.34968,-1.19903 0.31271,-2.4206 1.20773,-3.23659z" fill="#876a89"/><path d="M149.34689,234.42811c0.60274,0.30258 0.69946,0.68884 1.11744,1.33101c-0.7294,0.75483 -0.89179,0.92704 -1.77843,1.48712l-0.15274,0.07403l-0.2551,-0.09013c-0.77414,-1.53702 -0.09592,-1.79936 1.06883,-2.80204z" fill="#876a89"/><path d="M161.17918,239.32242l0.19796,0.04185c0.90773,1.02843 -0.51341,2.35622 -1.26921,3.12232c-0.36647,-0.03702 -0.45113,-0.31223 -0.60177,-0.58262c-0.04506,-1.52414 0.42586,-1.94582 1.67302,-2.58155z" fill="#876a89"/><path d="M152.91937,240.92543c0.65472,-0.00966 0.7257,-0.10783 1.16636,0.33637c0.20311,1.08476 -0.3383,1.65612 -1.28289,2.07779c-0.19345,0.07725 -0.32334,0.07564 -0.53578,0.10622l-0.2654,-0.23176c-0.32044,-1.1073 0.05955,-1.67382 0.9177,-2.28863z" fill="#876a89"/><path d="M146.26964,237.41202c0.58873,0.13358 0.76577,0.1529 0.99029,0.69367c-0.12264,0.79667 -0.7492,1.25215 -1.36368,1.74303l-0.63492,-0.07403l-0.25477,-0.33959c-0.15998,-0.96888 0.38611,-1.6706 1.26309,-2.02307z" fill="#876a89"/><path d="M165.60998,230.2162c0.33476,0.01288 0.33959,0.04506 0.647,0.19635c0.45708,1.01073 0.09335,2.33852 -0.64217,3.12715c-1.43401,-0.67918 -0.6647,-2.28058 -0.00483,-3.3235z" fill="#9d7594"/><path d="M166.06062,226.228l0.33476,0.31223c0.21406,1.06867 -0.0676,2.00215 -0.97049,2.66041c-1.27951,-0.79345 -0.44421,-2.31277 0.63573,-2.97264z" fill="#9d7594"/><path d="M163.14592,231.25429c-0.25751,-1.14592 -0.56491,-2.06491 0.24624,-3.06438l0.28487,-0.0177c0.63573,0.66792 0.32189,1.84442 0.22371,2.71352z" fill="#876a89"/><path d="M163.13948,232.3133c0.272,0.00161 0.86105,-0.01127 1.10569,0.01288c-0.06599,0.41202 -0.26234,1.86695 -0.36534,2.16631c-0.11427,0.04024 -0.75161,0.26234 -0.82564,0.272c-0.06116,-1.022 -0.11588,-1.44528 0.0853,-2.45118z" fill="#876a89"/><path d="M163.90075,230.88573c0.27361,0.647 0.3074,0.74034 0.34442,1.44045c-0.24464,-0.02414 -0.83369,-0.01127 -1.10569,-0.01288c0.04989,-0.42811 0.02414,-0.63251 0.00644,-1.05901z" fill="#876a89"/><path d="M23.7948,188.00376l40.00123,-0.22371c2.25821,-0.02575 4.45928,-0.20601 6.69496,-0.2559c4.99168,-0.15933 9.98739,-0.1368 14.97747,0.0676c1.63696,0.94152 4.35225,3.26234 5.94979,4.48391c1.37124,1.04936 4.00574,2.94689 5.12913,4.06062c0.71395,0.43294 1.67108,1.19099 2.25258,1.72049c0.79828,0.72747 1.98863,1.44528 2.75488,2.08101c1.75043,1.45172 4.42114,1.73498 4.678,4.20225c0.02704,0.26073 4.21915,2.06652 4.6846,2.61695c0.63235,0.48122 1.59769,1.61427 2.27076,1.81384l0.32237,0.64056c0.48396,0.66953 1.47216,1.3471 1.57918,1.52253c5.21636,3.60354 9.9985,7.59496 14.96282,11.51717c3.61159,2.85354 7.68975,5.44796 11.17661,8.48176c0.61223,0.53273 0.98401,1.10247 1.53605,1.64968c-0.90837,1.80579 -0.56459,7.12661 -0.54898,9.33798c-0.00805,4.82028 0.04925,9.63895 0.17189,14.45601c0.03476,1.06706 0.34539,5.1647 0.07339,5.79882l-2.45295,0.24624c-1.63358,-0.67275 -3.65794,-2.51878 -5.06363,-3.70815l-0.71266,0.44903c-1.43176,-0.98176 -3.22017,-2.40612 -4.61813,-3.48766c-2.03691,-1.1588 -6.65118,-4.98605 -8.71529,-6.51663c-1.30268,-0.96406 -6.81373,-5.09388 -7.66432,-6.00966c-2.17436,-1.29399 -4.98637,-4.40826 -7.59126,-5.34979c-1.19903,-0.43294 -3.48975,-0.04024 -4.76749,-0.62607c-0.63541,-0.82886 -0.47446,-2.47049 -0.47881,-3.5794c-2.07827,-1.64485 -4.05998,-3.3235 -6.18203,-4.98122c-2.44378,-1.43884 -7.37623,-5.63466 -9.89823,-7.46137c-1.36014,-0.98337 -6.85236,-5.24678 -7.75477,-6.18509c-1.50451,-1.18133 -3.21003,-2.71835 -4.89286,-3.57779c-1.47924,0.02092 -3.24496,0.15451 -4.74238,0.23015c-0.00306,-1.76556 -0.46448,-4.18777 0.57216,-5.40773c0.53417,-0.3235 1.07141,-0.2221 1.72355,-0.2044c0.03895,-0.07403 0.00129,-7.44689 0.2728,-8.94367c-0.71491,-0.30097 -1.45703,-0.478 -2.2059,-0.68401c-1.39008,-0.02575 -3.87521,-0.48444 -5.33079,-0.67436c-4.63938,-0.60837 -9.23771,-1.54024 -13.84732,-2.30794c-4.82623,-0.77253 -9.6449,-1.59013 -14.4552,-2.4544c-1.66915,-0.30097 -5.32516,-0.88519 -6.76014,-1.38412c-0.8691,-0.19313 -3.95617,-0.68723 -4.50209,-1.30204c0.44501,-0.22049 0.83884,-0.09496 1.40102,-0.0515z" fill="#bfa470"/><path d="M66.92672,211.41792c-0.00306,-1.76556 -0.46448,-4.18777 0.57216,-5.40773c0.53417,-0.3235 1.07141,-0.2221 1.72355,-0.2044l0.78557,0.07886c0.79313,0.12876 1.7868,0.31867 2.56786,0.39914c0.05858,1.49195 0.09399,3.0853 0.18621,4.5676c1.37639,1.60783 2.85386,2.07296 3.58777,3.59227c0.08755,0.18026 0.05504,0.11266 0.21212,0.32189c-1.50451,-1.18133 -3.21003,-2.71835 -4.89286,-3.57779c-1.47924,0.02092 -3.24496,0.15451 -4.74238,0.23015z" fill="#363b3d"/><path d="M68.11722,206.56867c1.14769,-0.02253 2.45923,0.05633 3.61883,0.09979c0.07629,0.85783 0.33122,2.68455 0.07725,3.43938l-0.3948,0.13358c-1.15848,0.1368 -2.31921,0.25268 -3.48187,0.34603c-0.15612,-0.98498 -0.25864,-3.14807 0.18058,-4.01878z" fill="#f9f8f8"/><path d="M96.54737,196.13627c0.71395,0.43294 1.67108,1.19099 2.25258,1.72049c0.79828,0.72747 1.98863,1.44528 2.75488,2.08101c1.75043,1.45172 4.42114,1.73498 4.678,4.20225c0.02704,0.26073 4.21915,2.06652 4.6846,2.61695c0.63235,0.48122 1.59769,1.61427 2.27076,1.81384l0.32237,0.64056c0.48396,0.66953 1.47216,1.3471 1.57918,1.52253l-0.21985,0.03219c-0.34973,-0.09013 -0.34233,-0.08852 -0.62527,-0.32028c-2.45118,-2.00215 -5.51089,-3.35569 -8.28814,-4.83155c0.17253,0.09174 -1.85038,-2.34979 -2.203,-2.69421c-1.39555,-1.36481 -5.20896,-3.10944 -6.10622,-4.55633l0.11862,-0.10944c0.61867,0.16738 6.82677,4.51448 7.40038,5.18562l0.14549,0.17221l0.16803,-0.0338c0.07484,-0.3927 -0.06518,-1.21513 -0.46754,-1.37124c-3.18927,-1.24088 -5.82779,-3.58584 -8.4515,-5.75376z" fill="#b0ab91"/><path d="M100.397,233.39324l0.88761,0.14163l0.17479,0.25912c-0.0544,0.53273 -0.21953,1.26502 0.11878,1.73337c0.63026,0.87393 2.22006,1.26663 3.12666,0.57135l0.19796,-0.63895l0.81969,0.22854c0.82194,1.78648 6.32044,4.62071 6.86041,5.48981c-1.11309,-0.28165 -0.81615,-0.62929 -1.97768,-0.91738l-0.089,0.12876c0.82098,0.90933 2.56111,1.77521 2.71835,2.55901c-2.17436,-1.29399 -4.98637,-4.40826 -7.59126,-5.34979c-1.19903,-0.43294 -3.48975,-0.04024 -4.76749,-0.62607c-0.63541,-0.82886 -0.47446,-2.47049 -0.47881,-3.5794z" fill="#696a6a"/><path d="M101.45939,233.79399c0.52902,-1.28755 1.91282,-1.54345 3.17173,-1.31974l0.27167,2.98552l-0.19796,0.63895c-0.9066,0.69528 -2.49641,0.30258 -3.12666,-0.57135c-0.3383,-0.46835 -0.17318,-1.20064 -0.11878,-1.73337z" fill="#f9f8f8"/><path d="M94.21497,228.41202c1.52994,0.12715 4.55536,3.79667 5.53729,3.59227c-0.12811,-0.76931 -2.25676,-2.31277 -2.95751,-2.99517c1.79694,0.97693 2.27849,1.97318 3.91529,2.63466c1.15912,-0.14002 3.57248,-0.65504 4.40553,0.21567c-0.14131,0.18991 -0.32092,0.45708 -0.48444,0.61481c-1.25891,-0.22371 -2.6427,0.03219 -3.17173,1.31974l-0.17479,-0.25912l-0.88761,-0.14163c-2.07827,-1.64485 -4.05998,-3.3235 -6.18203,-4.98122z" fill="#898b8b"/><path d="M67.28932,196.17811c0.75161,-0.35086 2.90504,-0.1191 3.65536,0.24946c0.21486,0.96567 -0.8015,1.66094 -0.96229,2.68455c-0.32543,2.07296 0.14887,4.82672 0.02559,6.77253l-0.78557,-0.07886c0.03895,-0.07403 0.00129,-7.44689 0.2728,-8.94367c-0.71491,-0.30097 -1.45703,-0.478 -2.2059,-0.68401z" fill="#55554a"/><path d="M129.61416,255.47479c0.52629,0.04506 0.64506,0.1529 1.09796,0.4088l0.21888,-0.09174c-0.22323,-0.46513 -0.26588,-0.47318 -0.61577,-0.82886c0.81792,0.36212 3.9309,2.85032 4.62972,3.55043l-0.71266,0.44903c-1.43176,-0.98176 -3.22017,-2.40612 -4.61813,-3.48766z" fill="#696a6a"/><path d="M26.89587,189.3573c-0.8691,-0.19313 -3.95617,-0.68723 -4.50209,-1.30204c0.44501,-0.22049 0.83884,-0.09496 1.40102,-0.0515c0.46159,0.08369 3.03138,0.20279 3.15338,0.26717c-0.17269,0.19474 -0.32511,0.35408 -0.50794,0.53916l0.0993,0.10139l0.45998,-0.07564c-0.02495,0.31223 0.00402,0.23337 -0.10365,0.52146z" fill="#696a6a"/><path d="M105.11556,231.85944c0.59308,1.72693 0.68063,2.02146 0.60692,3.82886l-0.81969,-0.22854l-0.27167,-2.98552c0.16352,-0.15773 0.34313,-0.42489 0.48444,-0.61481z" fill="#8c8a73"/><path d="M106.81915,221.96137c0.43101,0.73391 1.31749,1.02361 2.11786,1.49517c-0.00644,1.15236 0.15274,2.98552 -0.0552,3.99785l-0.136,1.7897c0.05955,0.53433 0.05585,0.50697 -0.10992,1.02039c-1.17602,0.57618 -2.06041,-1.59496 -2.36894,-2.41899c-0.41813,-0.62446 0.1331,-1.04292 0.52033,-1.60139c-0.48734,-1.59013 -0.51084,-1.82994 -0.06599,-3.38948z" fill="#cda169"/><path d="M106.26695,227.84549l0.22725,-0.39109c1.19405,-0.18991 2.08439,0.62446 2.25161,1.7897c0.05955,0.53433 0.05585,0.50697 -0.10992,1.02039c-1.17602,0.57618 -2.06041,-1.59496 -2.36894,-2.41899z" fill="#e0b97b"/><path d="M81.60837,201.0676c-0.00306,-0.13519 -0.00515,-0.272 -0.00612,-0.40719c-0.00435,-0.65826 -0.0507,-0.81116 0.36132,-1.22479c0.75467,0.07564 1.17055,0.67436 1.71019,1.26019c0.72216,1.02682 0.46577,5.24517 0.23755,6.54399l-0.0449,0.25107c-0.64909,-0.03863 -1.39474,-0.21406 -2.04174,-0.34281c0.74984,-0.22532 1.30317,0.29131 1.84313,-0.00483l-0.17302,-0.33959c-0.04426,-0.01931 -1.7617,-1.4823 -1.86035,-1.64646c-0.04523,-0.45064 -0.16416,-3.84818 -0.02607,-4.08959z" fill="#cda169"/><path d="M81.60837,201.0676c-0.00306,-0.13519 -0.00515,-0.272 -0.00612,-0.40719c-0.00435,-0.65826 -0.0507,-0.81116 0.36132,-1.22479c0.75467,0.07564 1.17055,0.67436 1.71019,1.26019c0.04893,0.67597 0.17704,1.16524 -0.16143,1.71888c-0.78653,0.45869 -1.71116,-0.64217 -1.90397,-1.3471z" fill="#e0b97b"/><path d="M81.63444,205.15719c0.10349,-0.45225 0.19539,-0.90773 0.27586,-1.36642c1.15156,-0.61642 2.27157,1.03648 1.78294,2.47693c-0.06196,0.18026 -0.12811,0.35891 -0.19844,0.53594c-0.04426,-0.01931 -1.7617,-1.4823 -1.86035,-1.64646z" fill="#e0b97b"/><path d="M133.23332,242.33369c3.00241,0.96567 2.16744,5.01019 2.08407,7.50644c-0.9441,-0.15933 -1.36143,-0.9206 -1.95306,-1.68348c0.10011,-1.81706 -0.10027,-3.97693 -0.13101,-5.82296z" fill="#cda169"/><path d="M119.11835,227.12607c1.05097,0.35247 2.30858,1.45011 2.39163,2.61052c-0.29372,0.5456 -0.14582,0.36052 -0.75354,0.68401c-0.52403,-0.03541 -1.45156,-0.54077 -1.58385,-0.49893l0.028,0.90612l0.122,0.04667c1.05773,0.41041 1.46266,0.48766 1.9096,1.58208c0.07532,0.50215 0.00274,0.74678 -0.24174,1.12178c-0.91094,0.32028 -1.68525,-0.06921 -2.30263,-0.75322c-0.30435,-0.99785 0.09802,-3.67275 0.22516,-4.82833l0.04313,0.04667z" fill="#cda169"/><path d="M106.81915,221.96137c-0.42972,-0.62768 -0.41958,-0.42811 -0.47688,-1.10086c0.27892,-0.33637 0.51084,-0.34764 0.93782,-0.46352l0.23852,-0.31384c-0.17302,-1.01556 -1.56905,-1.33101 -1.40891,-2.73444c0.59163,-0.49571 1.93085,-0.06438 2.20735,0.39109c0.85542,1.40665 0.69254,4.14431 0.61996,5.71674c-0.80038,-0.47157 -1.68686,-0.76127 -2.11786,-1.49517z" fill="#e0b97b"/><path d="M122.47886,240.27682c-0.54785,-0.54399 -0.60386,-0.76609 -0.43857,-1.51931c0.38659,-0.44099 0.15,-0.29614 0.75209,-0.41524c0.54013,0.18348 0.62833,0.38466 1.00928,0.84979c0.17269,1.52575 3.23932,1.81384 4.07446,3.38144c0.03605,0.65504 -0.00756,0.95279 -0.58053,1.37446c-0.80665,-0.12554 -1.20805,-0.67758 -1.69925,-1.35998c-0.136,-0.19152 -0.26347,-0.38948 -0.38192,-0.59388c-1.05402,-0.45064 -1.89608,-0.91094 -2.73557,-1.71727z" fill="#cda169"/><path d="M122.47886,240.27682c-0.54785,-0.54399 -0.60386,-0.76609 -0.43857,-1.51931c0.38659,-0.44099 0.15,-0.29614 0.75209,-0.41524c0.54013,0.18348 0.62833,0.38466 1.00928,0.84979c-0.39641,0.80633 -0.42216,0.83208 -1.3228,1.08476z" fill="#e0b97b"/><path d="M81.57151,194.59442c0.77607,-0.01127 1.45526,0.11427 2.22167,0.22371c0.06744,1.04775 0.25848,3.12071 0.00837,4.05097c-0.44807,-0.20923 -1.33793,-0.51985 -1.82334,-0.71137c-0.52146,-0.76127 -0.78348,-2.72639 -0.40671,-3.5633z" fill="#e0b97b"/><path d="M101.31212,209.30955c1.82929,0.09013 3.32672,2.44796 2.76245,4.01717c-2.01486,-0.23176 -3.3412,-2.01019 -2.76245,-4.01717z" fill="#e0b97b"/><path d="M106.31668,212.85676c1.98219,0.08208 2.91872,2.147 2.37473,3.96727c-1.82366,-0.32833 -3.37709,-2.26288 -2.37473,-3.96727z" fill="#e0b97b"/><path d="M115.98315,227.6765l0.76658,0.13519c0.11701,0.75483 0.17495,1.36803 -0.05778,2.11642l0.01175,2.00536c0.53482,0.6985 1.11856,1.98766 -0.15338,2.22908c-1.36239,-0.72747 -0.89807,-3.79989 -0.78975,-5.09067c0.10751,-0.34764 0.1022,-0.92865 0.22259,-1.39539z" fill="#e0b97b"/><path d="M115.98315,227.6765l0.76658,0.13519c0.11701,0.75483 0.17495,1.36803 -0.05778,2.11642c-0.17269,-0.59388 -0.09222,-0.72425 -0.48026,-1.01234l-0.45113,0.15612c0.10751,-0.34764 0.1022,-0.92865 0.22259,-1.39539z" fill="#cda169"/><path d="M125.54179,228.26556c1.57886,0.32994 2.52151,2.07618 2.20011,3.67275c-0.10992,0.5456 -0.15241,0.92382 -0.19201,1.47425l-0.10751,-0.84174c-1.32988,-1.13788 -3.27859,-2.53809 -1.90059,-4.30526z" fill="#e0b97b"/><path d="M81.82468,207.14807c0.647,0.12876 1.39265,0.30418 2.04174,0.34281c0.05295,0.3573 0.10107,0.7162 0.14421,1.07511c0.11411,0.97693 -0.01867,1.85569 -1.2095,1.8235c-1.41406,-0.74034 -1.33101,-1.88788 -0.97645,-3.24142z" fill="#dbc382"/><path d="M101.64238,222.98498c0.82758,0.24785 1.11438,0.46513 1.82672,0.91577c0.29662,0.81277 0.67758,1.53219 1.00252,2.44635l-0.3132,0.14968c-1.12951,-0.55204 -2.87688,-1.13144 -3.16255,-2.45601c0.07548,-0.55526 0.22838,-0.62929 0.64651,-1.05579z" fill="#e0b97b"/><path d="M125.94914,232.59657c0.69174,0.28004 0.93074,0.45869 1.54378,0.85944c0.24737,1.29077 0.29034,2.03916 0.1265,3.32511c-1.19501,-1.3294 -3.19249,-2.21298 -1.67028,-4.18455z" fill="#cda169"/><path d="M93.06438,216.23015c0.81116,0.36212 2.10644,2.28058 2.13492,3.17704c0.00676,0.21567 -0.32704,0.35408 -0.50874,0.47479c-1.05531,-0.50376 -2.50268,-1.4823 -2.46309,-2.76824c0.3272,-0.65665 0.18122,-0.43455 0.83691,-0.88358z" fill="#dbc382"/><path d="M121.49775,224.79882c0.95697,0.66148 2.06894,1.22639 2.42994,2.29185c-0.12393,0.62607 -0.02768,0.39431 -0.48541,0.88841c-0.62913,0.14485 -0.40767,0.17704 -0.98578,0.00483c-0.87682,-0.76127 -0.98015,-1.62876 -1.68106,-2.19045z" fill="#cda169"/><path d="M136.87114,236.23873c1.29383,0.24142 2.65783,1.25858 3.38144,2.35461c0.29952,0.45225 0.10027,0.7162 -0.05343,1.17811c-1.08444,0.21084 -2.13814,-1.3809 -2.82715,-2.0971c-0.49008,-0.50858 -0.53707,-0.78863 -0.50086,-1.43562z" fill="#cda169"/><path d="M122.50429,233.8133c0.75451,0.21406 1.67511,1.45494 2.02564,2.16792c0.33573,0.68401 0.09576,0.9721 -0.17012,1.60944c-1.50628,-1.40987 -3.2118,-1.60139 -1.85553,-3.77736z" fill="#cda169"/><path d="M92.33852,208.87983c2.25515,0.47639 2.83053,1.09764 2.48852,3.36534l-0.44614,-0.03702c-1.44367,-1.08959 -1.95773,-1.50161 -2.04238,-3.32833z" fill="#dbc382"/><path d="M92.88396,200.40612c1.26856,0.38305 2.07747,3.38144 2.07908,4.603c-1.77892,-0.80311 -2.57124,-2.72318 -2.07908,-4.603z" fill="#dbc382"/><path d="M92.26626,212.80043c2.45553,0.35086 2.70225,1.52414 2.728,3.67275c-1.54168,-0.54238 -2.44764,-2.14378 -2.728,-3.67275z" fill="#dbc382"/><path d="M101.32387,218.95494c1.95933,0.23981 2.52167,1.16524 2.47935,3.00161l-2.16438,-0.42328c-0.27698,-1.12661 -0.29179,-1.40826 -0.31497,-2.57833z" fill="#dbc382"/><path d="M133.56341,234.4088c0.70928,0.33155 1.31347,1.3117 1.77361,1.95869c0.02012,0.87071 0.07162,1.48069 -0.12216,2.33208c-1.4934,-2.15665 -2.42028,-1.28112 -1.65145,-4.29077z" fill="#cda169"/><path d="M122.26722,230.00536c1.37607,0.20601 2.62323,1.66255 2.09742,3.12554c-0.46143,-0.08691 -1.3809,-0.478 -1.85665,-0.66792c-0.38675,-1.07994 -0.56363,-1.38251 -0.24077,-2.45762z" fill="#cda169"/><path d="M93.0713,204.95118c1.12967,0.66953 2.16518,2.21459 1.69281,3.55365l-0.23997,0.08852c-0.83466,-0.96406 -1.70263,-1.23283 -2.03482,-2.28541c0.06567,-0.66953 0.19378,-0.77092 0.58197,-1.35676z" fill="#dbc382"/><path d="M101.54903,214.84764c1.91057,0.44903 2.35236,0.79506 2.14185,2.84227c-0.15579,-0.03702 -0.31111,-0.07564 -0.46561,-0.11749c-1.62827,-0.43294 -2.20864,-0.93991 -1.67623,-2.72479z" fill="#e0b97b"/><path d="M125.67747,237.09657c1.58691,0.39914 2.18997,1.19903 2.12366,2.76663c-2.08793,-0.00644 -2.61953,-0.64217 -2.12366,-2.76663z" fill="#e0b97b"/><path d="M118.53476,235.57403c1.75236,0.03058 2.27656,1.11212 1.52527,2.65075c-1.38991,-0.31706 -2.31518,-1.25054 -1.52527,-2.65075z" fill="#cda169"/><path d="M115.83702,220.37446c1.37398,0.31867 2.22554,1.54828 1.62425,2.91792c-1.57178,-0.7677 -2.48224,-0.45225 -1.62425,-2.91792z" fill="#e0b97b"/><path d="M133.24265,239.55579c1.82639,0.11266 2.37554,0.93348 1.95805,2.69421c-2.03707,-0.647 -1.97382,-0.5617 -1.95805,-2.69421z" fill="#e0b97b"/><path d="M115.98315,227.6765c-0.11749,-0.89002 -0.44437,-1.97157 0.16593,-2.68777c1.19694,0.09979 0.90129,2.02951 0.60064,2.82296z" fill="#e0b97b"/><path d="M138.08385,248.60247c1.00461,0.76448 0.72264,2.36105 0.22307,3.33959c-0.98788,-0.67918 -0.68788,-2.4206 -0.22307,-3.33959z" fill="#e0b97b"/><path d="M120.77543,225.79345c-0.80971,-0.51824 -1.22865,-0.85461 -0.92318,-1.84281c0.45821,-0.35891 0.19844,-0.26073 0.82403,-0.24946c0.59807,0.40236 0.44405,0.36373 0.82146,1.09764z" fill="#e0b97b"/><path d="M137.9596,244.84442c1.21111,0.48605 1.11132,1.7044 0.52001,2.67006l-0.28696,-0.06599c-0.75998,-0.70815 -0.68659,-1.7382 -0.23305,-2.60408z" fill="#e0b97b"/><path d="M139.19485,241.62876c1.31524,0.39431 0.8118,1.78809 0.54142,2.73283c-1.01878,-0.58906 -1.08155,-1.78004 -0.54142,-2.73283z" fill="#e0b97b"/><path d="M73.23525,133.16781c5.60553,-0.68433 12.21132,1.20306 16.60703,5.0213c9.21518,8.00424 9.62414,25.89512 1.786,34.95789c-3.74952,4.33423 -9.36277,6.09657 -15.05907,6.35408c-12.89099,0.8015 -22.32087,-6.9882 -23.50687,-19.98863c-0.96583,-10.58723 2.67055,-20.12028 12.85912,-24.7595c2.36508,-1.07704 4.76202,-1.36384 7.31379,-1.58514z" fill="#2d1f34"/><path d="M74.28106,142.01781c8.51395,-0.70284 12.66035,6.58374 12.36341,14.29893c-0.28857,7.50193 -2.24968,13.11245 -10.43079,14.30987c-7.97913,0.17704 -11.85177,-4.62554 -12.67741,-12.41314c-0.81695,-7.70504 2.02564,-15.4537 10.7448,-16.19565z" fill="#f9f8f8"/><path d="M140.98745,187.4485c0.37597,-0.53594 0.24447,-0.53594 0.73648,-0.68562c0.50585,0.66309 -0.05681,1.21513 0.96309,1.23605c2.88734,0.06116 5.91116,0.08852 8.79464,0.09496c6.89244,0.02253 13.78552,-0.00322 20.67715,-0.07403c1.42758,-0.01127 6.68401,-0.1529 7.82994,-0.01609c2.52521,-0.1883 4.56116,-0.31706 7.09442,-0.35569c-0.84496,2.05204 -2.34335,3.21727 -4.34871,4.14431c-0.9367,0.81921 -2.6765,1.99732 -3.74034,2.77629l-7.76073,5.67811c-5.74893,4.27307 -11.26964,9.04989 -17.08439,13.21674c-1.13095,0.81116 -7.84008,6.63573 -8.47613,6.87715c-0.2588,1.05258 -0.31159,3.31545 -0.37339,4.4823l-5.15215,-0.02092c-0.79297,-0.12393 -0.70188,-3.6824 -1.00751,-4.66738c-0.55735,-0.09657 -1.09635,-0.61803 -1.52285,-0.9882c-1.76089,-1.20869 -3.82162,-2.92918 -5.52232,-4.27307c-2.64753,-2.08584 -5.32082,-4.13788 -8.01888,-6.15773l-12.87039,-9.65343c-1.68605,-1.28112 -4.63825,-3.36534 -6.12296,-4.73659c-0.20891,-0.0676 -1.65016,-1.05258 -1.86502,-1.2441c-1.23138,-1.09603 -5.65494,-3.38948 -5.53342,-5.1309c0.79667,-0.56813 7.85231,-0.41363 9.10413,-0.30258c4.30542,-0.48605 33.17237,0.54399 34.19936,-0.19957z" fill="#664a82"/><path d="M140.98745,187.4485c0.28777,0.45869 0.42006,0.54721 0.87248,0.84818c0.63219,2.0633 0.79136,27.66309 0.31111,30.17543l-0.30064,0.08047c-0.63847,0.3235 -2.36862,1.09925 -2.73058,1.58208c-0.55735,-0.09657 -1.09635,-0.61803 -1.52285,-0.9882c-1.76089,-1.20869 -3.82162,-2.92918 -5.52232,-4.27307c-2.64753,-2.08584 -5.32082,-4.13788 -8.01888,-6.15773l-12.87039,-9.65343c-1.68605,-1.28112 -4.63825,-3.36534 -6.12296,-4.73659c-0.20891,-0.0676 -1.65016,-1.05258 -1.86502,-1.2441c-1.23138,-1.09603 -5.65494,-3.38948 -5.53342,-5.1309c0.79667,-0.56813 7.85231,-0.41363 9.10413,-0.30258c4.30542,-0.48605 33.17237,0.54399 34.19936,-0.19957z" fill="#bfa470"/><path d="M105.0824,194.32564c-0.20891,-0.0676 -1.65016,-1.05258 -1.86502,-1.2441c-1.23138,-1.09603 -5.65494,-3.38948 -5.53342,-5.1309c0.79667,-0.56813 7.85231,-0.41363 9.10413,-0.30258c-1.78004,0.69045 -4.45429,-0.81599 -3.72956,1.63358c0.18814,0.63573 -0.31384,1.59174 -0.17656,2.25c0.23385,1.09281 2.06411,2.22908 2.20043,2.79399z" fill="url(#color-1)"/><path d="M137.61695,219.14646l0.16867,-0.13197c1.64421,0.76288 2.52167,-0.67597 4.08476,-0.46191c-0.63847,0.3235 -2.36862,1.09925 -2.73058,1.58208c-0.55735,-0.09657 -1.09635,-0.61803 -1.52285,-0.9882z" fill="#b0ab91"/><path d="M142.17103,218.4721l0.10655,0.32994c-0.98401,1.17811 -0.89067,-0.14807 -1.80129,1.5338c1.26695,-0.21888 2.84002,-0.48283 3.93396,0.21888c0.26459,0.35086 0.21406,0.6985 0.23047,1.15397c0.04587,-0.55687 0.03927,-0.77253 0.21808,-1.29077c0.32672,-0.07725 0.48187,-0.10139 0.81406,-0.07725c-0.2588,1.05258 -0.31159,3.31545 -0.37339,4.4823l-5.15215,-0.02092c-0.79297,-0.12393 -0.70188,-3.6824 -1.00751,-4.66738c0.36196,-0.48283 2.09211,-1.25858 2.73058,-1.58208z" fill="#f9f8f8"/><path d="M144.64072,221.70869c0.04587,-0.55687 0.03927,-0.77253 0.21808,-1.29077c0.32672,-0.07725 0.48187,-0.10139 0.81406,-0.07725c-0.2588,1.05258 -0.31159,3.31545 -0.37339,4.4823l-5.15215,-0.02092l-0.16674,-0.29292l0.12232,-0.21406l0.68578,-0.13519c1.19871,-0.12232 2.52747,-0.07403 3.74163,-0.06277c-0.00499,-0.84174 -0.04651,-1.56116 0.11041,-2.38841z" fill="#484f62"/><path d="M142.17103,218.4721l0.10655,0.32994c-0.98401,1.17811 -0.89067,-0.14807 -1.80129,1.5338c0.03927,0.78058 0.09641,3.22049 0.31239,3.82403l-0.68578,0.13519l-0.12232,0.21406l0.16674,0.29292c-0.79297,-0.12393 -0.70188,-3.6824 -1.00751,-4.66738c0.36196,-0.48283 2.09211,-1.25858 2.73058,-1.58208z" fill="#525c5e"/><path d="M179.98873,188.00376c2.52521,-0.1883 4.56116,-0.31706 7.09442,-0.35569c-0.84496,2.05204 -2.34335,3.21727 -4.34871,4.14431c0.02897,-0.103 0.14646,-0.31545 0.19957,-0.42328c0.48766,-0.25268 0.5617,-0.28165 0.96084,-0.647l0.0177,-0.42972c-0.57296,-1.04292 -0.37983,-0.83369 -0.54721,-1.92489c-0.81277,-0.41845 -2.23552,0.02414 -3.37661,-0.36373z" fill="#484f62"/><path d="M96.60113,24.33847c4.5,-1.55955 3.75982,0.90789 3.64571,4.37591c0.30853,0.96035 0.4434,2.2463 0.94249,2.87849c0.6375,0.32366 0.50134,0.21052 1.32988,0.15692c0.41282,-0.41443 0.46529,-0.464 0.96068,-0.76561c0.45129,-0.28197 0.90853,-0.55494 1.37092,-0.81824c1.41373,-0.80424 3.51052,-2.11336 4.48342,-0.20215l0.67564,1.55472c-0.50295,0.46947 -0.97774,0.80858 -0.9507,1.50853c0.06711,1.74383 1.13273,4.18133 1.72162,5.94866c1.964,5.00376 3.37886,10.25874 5.10933,15.3449c0.23305,0.68498 0.51711,1.43948 0.69399,2.13155c0.94861,1.95563 2.09791,6.51502 2.95123,8.87479c3.08047,8.51862 5.75054,17.25145 8.56561,25.86937c1.17393,3.47929 2.27108,6.98385 3.2905,10.51143c0.20038,0.69528 0.92334,3.03412 1.01926,3.64893c0.41894,1.05563 1.03117,2.06073 0.95891,3.15982l-0.20054,0.10397c-0.56781,-0.35311 -0.98932,-0.72232 -1.62731,-0.70574c-1.34067,0.68562 -0.7405,1.7802 -2.58557,1.71003c-1.25762,-0.05569 -4.93374,1.68106 -7.00767,2.0448l-0.40123,-0.21212c-0.90853,-0.08707 -0.05633,-1.14093 -0.66615,-1.82672c-0.31062,0.39866 -0.1809,0.78155 -0.31658,1.29721c-0.25832,-0.76288 -0.36856,-0.98546 -0.86041,-1.62248c-1.00252,-2.16872 -1.72403,-4.52817 -2.53101,-6.78074c-1.59431,-4.45027 -2.95139,-8.97795 -4.44351,-13.45574c-4.53943,-13.37221 -8.91567,-26.7993 -13.12774,-40.27822c-1.40182,-4.56599 -2.86722,-9.11202 -4.39603,-13.63712c-0.69512,-2.05542 -1.57275,-4.89045 -2.47902,-6.78959c-0.48782,-0.71057 -1.0162,-1.82559 -0.7125,-2.67586c0.86733,-0.90241 2.34415,-0.83675 3.65263,-0.96663z" fill="#cda169"/><path d="M125.83374,108.37468c-1.23364,-0.87843 -4.7522,-14.36266 -5.40644,-16.62876c-0.66309,-2.29651 -1.92441,-5.08149 -2.66105,-7.3323l-11.53584,-34.88723c-0.61964,-1.8272 -1.34018,-4.11647 -1.91556,-5.94818c-0.60917,-1.93954 -3.32253,-8.32242 -2.81556,-9.9544c1.73433,-0.08965 3.02285,6.43616 3.54721,7.83943c1.36722,3.65874 2.38181,7.51127 3.55799,11.24807c3.86234,12.26958 8.39083,24.30708 12.56894,36.46207c0.84785,2.52908 1.71229,5.05252 2.59345,7.57033c0.48975,1.36577 1.00622,2.62323 1.51722,4.08026c0.89726,2.55805 1.02087,6.02817 3.13889,7.95901c0.38627,0.35215 0.65536,0.66824 1.13659,0.63235c0.96744,-0.57232 0.96888,-1.41261 1.52607,-2.15762c1.27049,-1.69844 -1.83621,-4.922 -1.29238,-6.01014c0.19024,0.04877 1.81513,3.66486 1.91765,4.14689c0.12892,0.60644 -0.02768,1.75349 0.32752,2.19995c1.6471,-0.25091 0.24914,-0.79104 0.37226,-2.23777c0.41894,1.05563 1.03117,2.06073 0.95891,3.15982l-0.20054,0.10397c-0.56781,-0.35311 -0.98932,-0.72232 -1.62731,-0.70574c-1.34067,0.68562 -0.7405,1.7802 -2.58557,1.71003c-0.99624,-0.7978 -1.40198,-1.91041 -2.44297,-2.0015c-0.4508,0.27827 -0.42859,0.30499 -0.67951,0.75145z" fill="#e0b97b"/><path d="M96.60113,24.33847c0.77446,0.85461 -0.3618,1.42822 -0.6581,2.31454c-0.19651,0.48315 -0.20359,0.59598 -0.63476,0.90177c-0.49458,0.07436 -0.50005,0.03251 -0.94667,-0.1632l-0.54866,0.03396c-0.5831,0.35359 -0.66341,0.40655 -1.08605,0.93847c-0.48782,-0.71057 -1.0162,-1.82559 -0.7125,-2.67586c0.86733,-0.90241 2.34415,-0.83675 3.65263,-0.96663z" fill="#898b8b"/><path d="M96.60113,24.33847c0.77446,0.85461 -0.3618,1.42822 -0.6581,2.31454c-0.19651,0.48315 -0.20359,0.59598 -0.63476,0.90177c-0.49458,0.07436 -0.50005,0.03251 -0.94667,-0.1632c0.5147,-0.57505 0.64313,-1.24909 0.85574,-1.98863l0.44968,-0.68144z" fill="#898b8b"/><path d="M93.81293,27.42554c-0.48171,-0.70059 -0.59614,-0.65343 -0.61626,-1.37817c0.5757,-0.65198 1.10536,-0.58197 2.02065,-0.64442c-0.21261,0.73954 -0.34104,1.41357 -0.85574,1.98863z" fill="#dcdbd9"/><path d="M96.60113,24.33847c4.5,-1.55955 3.75982,0.90789 3.64571,4.37591c-0.19185,-0.85799 -0.45547,-1.21336 -0.90032,-1.95209c-1.22124,-0.00177 -2.1927,0.18991 -3.40349,-0.10928c0.2963,-0.88632 1.43256,-1.45992 0.6581,-2.31454z" fill="#afb0b1"/><path d="M116.58412,56.45215l-0.11588,0.0544c-0.70204,-0.65118 -1.93326,-6.06792 -2.64818,-7.22849c-1.49952,-0.1434 -0.8625,-1.52897 -0.59646,-2.30488c-0.70011,-1.5132 -1.18165,-3.76786 -1.74431,-5.37795c-0.25719,-0.736 -0.69367,-1.69378 -0.85043,-2.38117l0.15193,-0.23836c1.964,5.00376 3.37886,10.25874 5.10933,15.3449c0.23305,0.68498 0.51711,1.43948 0.69399,2.13155z" fill="#bfa470"/><path d="M125.83374,108.37468c0.25091,-0.44646 0.2287,-0.47318 0.67951,-0.75145c1.04099,0.09109 1.44673,1.2037 2.44297,2.0015c-1.25762,-0.05569 -4.93374,1.68106 -7.00767,2.0448l-0.40123,-0.21212c0.58326,-0.0927 4.38879,-1.34582 4.99716,-1.58981c-0.11427,-0.46416 -0.47479,-1.0566 -0.71073,-1.49292z" fill="#d6ceb7"/><path d="M103.47988,30.98417c0.45129,-0.28197 0.90853,-0.55494 1.37092,-0.81824c1.41373,-0.80424 3.51052,-2.11336 4.48342,-0.20215l-0.19973,0.1125c-0.89887,-0.25767 -1.79067,-0.59646 -2.43653,0.33541l-0.04957,0.17688c-0.62253,0.23562 -2.6118,0.73117 -3.16851,0.3956z" fill="#78777b"/><path d="M103.47988,30.98417c0.55671,0.33557 2.54598,-0.15998 3.16851,-0.3956c0.01835,0.5213 -0.09431,0.7838 0.37339,1.10842c-1.31202,0.22355 -3.20585,0.42071 -4.50258,0.05279c0.41282,-0.41443 0.46529,-0.464 0.96068,-0.76561z" fill="#dcdbd9"/><path d="M106.69796,30.4117c0.64587,-0.93187 1.53766,-0.59308 2.43653,-0.33541c-0.00982,0.5221 0.05649,0.65392 -0.51277,0.87682c-0.64973,0.39399 -0.85445,0.5448 -1.59995,0.74388c-0.4677,-0.32462 -0.35504,-0.58712 -0.37339,-1.10842z" fill="#dcdbd9"/><path d="M106.69796,30.4117c0.76706,0.15837 1.51996,0.12296 1.92377,0.54142c-0.64973,0.39399 -0.85445,0.5448 -1.59995,0.74388c-0.4677,-0.32462 -0.35504,-0.58712 -0.37339,-1.10842z" fill="#f9f8f8"/><path d="M92.36427,38.97103c0.6074,-0.26508 0.6948,-0.36052 1.29769,-0.21164c0.914,0.59083 1.01572,1.67817 1.22479,2.70177c-0.71314,0.45917 -1.29383,0.74759 -1.63632,1.55697c0.65778,0.92334 2.66105,7.59753 3.14308,9.04716l10.2515,31.0397c1.75091,5.06926 3.47076,10.1493 5.15955,15.23965c0.61352,1.8008 2.16406,5.96813 2.54421,7.7007c0.38079,0.54705 1.76459,4.70424 2.10901,5.68036c-0.5419,0.4838 -0.5485,0.95021 -0.70928,1.63777c-0.46867,0.01964 -4.48374,1.15139 -5.19818,1.3603c-0.34168,0.11958 -0.56137,0.20971 -0.91899,0.28407c-0.53884,0.18026 -1.11808,0.39802 -1.67141,0.50408c-1.28433,0.33138 -2.54662,0.62398 -3.77929,1.11824c-0.07693,0.79683 -0.00595,1.75268 -0.93541,1.88884c-0.70606,-0.52436 -0.8971,-1.62602 -1.11905,-2.44748c-0.78766,-2.91486 -1.63101,-5.80268 -2.53809,-8.68278l-11.92806,-37.38509c-1.37849,-4.29962 -4.07012,-14.11996 -6.22387,-17.56497c-0.43262,-0.5081 -1.06642,-1.99893 -1.01121,-2.62709c0.16722,-1.89882 2.26722,-1.55408 3.39464,-1.47924c0.82548,0.0544 1.00992,0.04973 1.82511,-0.08353l1.43047,-0.54657l0.29067,-0.42763c-0.20376,-0.75563 -0.38643,-1.5169 -0.54769,-2.28283c-0.52951,-1.36674 -0.92591,-2.789 -1.50193,-4.2404c0.39802,-0.11829 0.79844,-0.2287 1.2008,-0.33106c1.77811,-0.44678 2.24276,0.71797 3.17833,0.67226l0.39351,-0.53836c0.38031,-0.31851 0.76497,-0.63187 1.15365,-0.94024c0.40992,-0.21679 0.72715,-0.39995 1.12178,-0.64297z" fill="#cda169"/><path d="M87.07516,47.70225c3.04313,8.92114 6.02527,17.86288 8.94608,26.82489l12.53981,40.45687c-0.20907,0.21341 -0.36888,0.33895 -0.60113,0.5279c-1.28433,0.33138 -2.54662,0.62398 -3.77929,1.11824c-0.07693,0.79683 -0.00595,1.75268 -0.93541,1.88884c-0.70606,-0.52436 -0.8971,-1.62602 -1.11905,-2.44748c-0.78766,-2.91486 -1.63101,-5.80268 -2.53809,-8.68278l-11.92806,-37.38509c-1.37849,-4.29962 -4.07012,-14.11996 -6.22387,-17.56497c-0.43262,-0.5081 -1.06642,-1.99893 -1.01121,-2.62709c0.16722,-1.89882 2.26722,-1.55408 3.39464,-1.47924c0.82548,0.0544 1.00992,0.04973 1.82511,-0.08353z" fill="#cda169"/><path d="M83.81958,48.33235c0.82548,0.0544 1.00992,0.04973 1.82511,-0.08353c0.25349,0.77897 0.54818,1.35274 0.18927,2.08873c-0.28487,0.09206 -0.23176,0.10735 -0.51727,0.1051c-1.75606,0.73342 -2.47049,0.68321 -3.88053,1.99603c-0.43262,-0.5081 -1.06642,-1.99893 -1.01121,-2.62709c0.16722,-1.89882 2.26722,-1.55408 3.39464,-1.47924z" fill="#78777b"/><path d="M83.81958,48.33235c0.82548,0.0544 1.00992,0.04973 1.82511,-0.08353c0.25349,0.77897 0.54818,1.35274 0.18927,2.08873c-0.28487,0.09206 -0.23176,0.10735 -0.51727,0.1051c-0.57457,-0.16481 -0.59936,-0.17124 -1.11856,-0.46191c-0.40719,-0.51454 -0.34362,-0.97049 -0.37854,-1.64839z" fill="#dcdbd9"/><path d="M81.79185,48.72248c0.53997,0.04683 0.67838,0.01288 1.0846,0.37387c0.31143,0.76497 0.00113,1.33101 -0.30161,2.12639c-0.5963,0.0655 -0.69383,0.16722 -1.10359,-0.22355c-0.21711,-0.80424 0.05633,-1.47538 0.3206,-2.27672z" fill="#dcdbd9"/><path d="M87.36583,47.27462c1.98235,2.27704 4.80628,11.8867 5.83133,14.91905c2.13975,6.33026 4.59592,12.91304 6.59759,19.27178l4.55633,14.32484c1.71888,5.54759 3.3066,11.02001 5.45633,16.43627c0.38562,0.72167 0.41202,1.83702 1.45494,1.81384c1.25376,-0.02768 3.02961,-0.50665 4.05402,-1.17682c1.83332,-1.19984 -1.53621,-6.04442 -0.9676,-6.81824c0.38079,0.54705 1.76459,4.70424 2.10901,5.68036c-0.5419,0.4838 -0.5485,0.95021 -0.70928,1.63777c-0.46867,0.01964 -4.48374,1.15139 -5.19818,1.3603c-0.34168,0.11958 -0.56137,0.20971 -0.91899,0.28407c-0.53884,0.18026 -1.11808,0.39802 -1.67141,0.50408c0.23224,-0.18895 0.39206,-0.31448 0.60113,-0.5279l-12.53981,-40.45687c-2.92082,-8.96202 -5.90295,-17.90376 -8.94608,-26.82489z" fill="#e0b97b"/><path d="M108.64925,114.32414c-0.27731,-0.57328 -0.6779,-2.15472 -0.51486,-2.80783c0.34909,-0.11797 0.43712,-0.1735 0.80842,-0.17752c0.35359,0.35681 0.80198,1.54973 1.13546,2.14925l0.07532,0.13326c-0.77672,0.16674 -0.8633,0.22741 -1.50435,0.70284z" fill="#dbc382"/><path d="M110.15359,113.6213c0.11749,0.47961 0.11347,0.73954 0.39673,1.10247c-0.34168,0.11958 -0.56137,0.20971 -0.91899,0.28407l-0.08562,-0.32672l-0.89646,-0.35697c0.64104,-0.47543 0.72763,-0.53611 1.50435,-0.70284z" fill="#d6ceb7"/><path d="M92.36427,38.97103c0.6074,-0.26508 0.6948,-0.36052 1.29769,-0.21164c0.914,0.59083 1.01572,1.67817 1.22479,2.70177c-0.71314,0.45917 -1.29383,0.74759 -1.63632,1.55697l-0.62044,-0.23562c-0.74582,0.39624 -1.33036,1.33004 -2.05204,0.89308c-0.12698,-0.48283 -0.12264,-0.46078 -0.09335,-0.96035c-0.09286,-0.90692 -0.17189,-1.27902 -0.39576,-2.161c0.38031,-0.31851 0.76497,-0.63187 1.15365,-0.94024c0.40992,-0.21679 0.72715,-0.39995 1.12178,-0.64297z" fill="#898b8b"/><path d="M91.24249,39.614c0.70317,1.20418 -0.28809,2.10225 1.27017,2.75247l0.11733,0.41604c-0.74582,0.39624 -1.33036,1.33004 -2.05204,0.89308c-0.12698,-0.48283 -0.12264,-0.46078 -0.09335,-0.96035c-0.09286,-0.90692 -0.17189,-1.27902 -0.39576,-2.161c0.38031,-0.31851 0.76497,-0.63187 1.15365,-0.94024z" fill="#9d8284"/><path d="M91.24249,39.614c0.40992,-0.21679 0.72715,-0.39995 1.12178,-0.64297c0.64265,1.32956 1.29512,1.60123 0.98079,2.69276c-0.34345,0.34136 -0.43841,0.41588 -0.8324,0.70268c-1.55826,-0.65021 -0.56701,-1.54828 -1.27017,-2.75247z" fill="#dcdbd9"/><path d="M85.3162,40.75139c0.39802,-0.11829 0.79844,-0.2287 1.2008,-0.33106c1.77811,-0.44678 2.24276,0.71797 3.17833,0.67226l0.39351,-0.53836c0.22387,0.88197 0.3029,1.25408 0.39576,2.161l-0.30676,-0.00467c-0.62994,-0.45933 -0.79426,-0.55542 -1.50773,-0.8691c-0.30821,0.42602 -0.94008,1.3529 -1.25215,1.69474c-0.05987,0.81148 -0.03492,0.71508 -0.59984,1.45558c-0.52951,-1.36674 -0.92591,-2.789 -1.50193,-4.2404z" fill="#898b8b"/><path d="M87.41797,43.53621c-0.33042,-0.58326 -0.59083,-1.06658 -0.50215,-1.71438c0.35939,-0.59034 0.15258,-0.41395 0.7537,-0.73358c0.66293,0.02269 0.37886,-0.07725 0.90177,0.25011l0.09882,0.50311c-0.30821,0.42602 -0.94008,1.3529 -1.25215,1.69474z" fill="#dcdbd9"/><path d="M104.62741,133.96191c0.94217,0.08707 2.85499,-0.00821 3.87924,-0.00708c2.15488,0.00209 4.34067,0.0375 6.4904,-0.00145c0.10284,5.54968 0.04185,11.36073 0.05553,16.92876c1.12774,-1.05563 4.00671,-4.15574 5.04319,-5.31293c2.19737,-2.45359 8.87736,-8.53986 9.74614,-11.4882c4.32039,-0.3367 8.65719,0.10799 12.96309,-0.02124c-2.74667,2.40386 -4.82237,5.50107 -7.27967,8.19705c-3.60225,3.95198 -7.41583,7.8 -10.89286,11.85724c0.63782,1.08412 3.11041,3.97516 4.03423,5.08262l8.40805,10.02972c2.23664,2.9485 4.40198,6.8353 6.60386,9.49893c-4.13047,-0.23337 -8.62452,0.04506 -12.84818,-0.12876c-0.5147,-1.02039 -1.79244,-2.85998 -2.48739,-3.87715c-3.43552,-5.02146 -8.07731,-11.27897 -13.24796,-14.51411c-0.16175,6.11926 -0.07017,12.18686 -0.03299,18.30595c-3.42441,0.09657 -6.85011,0.13841 -10.27564,0.12232c-0.09818,-14.89056 0.07838,-29.78965 -0.15901,-44.67167z" fill="#2d1f34"/><path d="M122.13283,40.0191c1.44866,-0.41942 2.7721,-0.73616 4.27854,-0.88857c0.51373,0.2176 2.05638,0.52902 2.69083,0.68691l1.2742,1.08653c0.74147,1.13675 2.67393,8.01357 3.30547,9.84383l9.93541,28.68879c1.11808,3.24447 4.30703,12.10252 4.8404,15.07291c0.64442,1.61797 1.13353,3.60966 1.5845,5.30746c0.10976,0.41298 0.15789,1.34211 0.24109,1.56518c-0.07548,0.29549 -0.19619,0.64716 -0.18798,0.93589c-0.66921,0.26652 -1.12613,0.47124 -1.84345,0.60933c-2.40595,1.05048 -6.33975,2.10982 -8.97039,3.03814l-0.37564,-0.20553c-1.2206,-0.1838 -0.71508,-1.02795 -2.20204,-0.72377c-0.34716,-0.72248 -1.04984,-2.92967 -1.23702,-3.69866c-0.42843,-0.70268 -3.30982,-9.66937 -3.88664,-11.33884c-5.13138,-14.85241 -9.08594,-30.88873 -14.7074,-45.52902c-0.42666,-0.89839 -1.04292,-1.62119 -1.18036,-2.56931c0.21293,-0.56862 0.09351,-0.37403 0.8044,-0.7199c1.0191,-0.25992 1.79131,-0.2596 2.80815,-0.43197c0.53063,0.16352 0.7331,0.17849 1.13095,0.53868c0.57924,0.48235 1.23444,1.10038 1.80547,1.61121c-0.07935,-0.93074 -0.0853,-1.93906 -0.10848,-2.87929z" fill="#cda169"/><path d="M116.49673,41.18047c1.0191,-0.25992 1.79131,-0.2596 2.80815,-0.43197c0.53063,0.16352 0.7331,0.17849 1.13095,0.53868c-0.1677,0.60354 -0.28696,1.03616 -0.39624,1.65805l0.45016,0.16175l0.02253,0.16288l-0.53321,0.27666c0.76754,0.17124 2.3905,0.14903 3.08289,-0.15756l0.29034,-0.62495c-0.06261,2.62532 4.04002,13.51851 5.08487,16.52704l7.14882,20.58605c0.99013,2.91422 1.69941,5.85789 2.61277,8.78224c1.29174,4.13578 3.03782,8.15536 4.23959,12.32141c0.26186,0.90756 1.17811,2.22119 1.30139,3.0684c-0.76111,0.3375 -4.08814,1.56679 -4.83396,1.71084c-1.2206,-0.1838 -0.71508,-1.02795 -2.20204,-0.72377c-0.34716,-0.72248 -1.04984,-2.92967 -1.23702,-3.69866c-0.42843,-0.70268 -3.30982,-9.66937 -3.88664,-11.33884c-5.13138,-14.85241 -9.08594,-30.88873 -14.7074,-45.52902c-0.42666,-0.89839 -1.04292,-1.62119 -1.18036,-2.56931c0.21293,-0.56862 0.09351,-0.37403 0.8044,-0.7199z" fill="#cda169"/><path d="M116.49673,41.18047c1.0191,-0.25992 1.79131,-0.2596 2.80815,-0.43197c0.53063,0.16352 0.7331,0.17849 1.13095,0.53868c-0.1677,0.60354 -0.28696,1.03616 -0.39624,1.65805c-0.37387,0.50038 -0.51019,0.66406 -1.17554,0.70928c-0.64474,0.07162 -1.06416,0.12264 -1.69474,0.26717c-0.12409,0.38063 -0.04201,0.25912 -0.29662,0.54802c-0.42666,-0.89839 -1.04292,-1.62119 -1.18036,-2.56931c0.21293,-0.56862 0.09351,-0.37403 0.8044,-0.7199z" fill="#d3d6e6"/><path d="M119.30488,40.7485c0.53063,0.16352 0.7331,0.17849 1.13095,0.53868c-0.1677,0.60354 -0.28696,1.03616 -0.39624,1.65805c-0.37387,0.50038 -0.51019,0.66406 -1.17554,0.70928z" fill="#696a6a"/><path d="M116.49673,41.18047l0.27216,0.28664c-0.06357,0.85783 -0.29887,1.38959 0.00885,2.08423l0.39158,0.37033c-0.12409,0.38063 -0.04201,0.25912 -0.29662,0.54802c-0.42666,-0.89839 -1.04292,-1.62119 -1.18036,-2.56931c0.21293,-0.56862 0.09351,-0.37403 0.8044,-0.7199z" fill="#696a6a"/><path d="M135.46674,101.33755c0.40606,0.47269 0.4154,0.49104 0.58712,1.09893c0.33412,-0.31255 0.19506,-0.12457 0.32849,-0.64861c0.93396,1.04372 1.02119,3.15612 2.45021,3.40236l0.07323,0.56974c-1.2206,-0.1838 -0.71508,-1.02795 -2.20204,-0.72377c-0.34716,-0.72248 -1.04984,-2.92967 -1.23702,-3.69866z" fill="#b0ab91"/><path d="M123.35231,42.764c0.53256,-0.27859 0.26845,-0.25638 0.81406,-0.11701c0.54383,0.47736 0.66663,0.78235 1.02216,1.40472c0.91593,4.36111 2.66041,8.11996 3.90306,12.23369c3.51792,11.64431 7.13948,23.33981 11.51813,34.69072c1.03793,2.6905 2.0617,5.43074 2.95606,8.1779c0.31964,0.98176 2.06717,3.50971 1.89528,4.2346l0.12554,0.23047c6.69496,-2.13991 4.00188,-3.67082 2.69742,-8.8772l0.17366,-0.2324c0.64442,1.61797 1.13353,3.60966 1.5845,5.30746c0.10976,0.41298 0.15789,1.34211 0.24109,1.56518c-0.07548,0.29549 -0.19619,0.64716 -0.18798,0.93589c-0.66921,0.26652 -1.12613,0.47124 -1.84345,0.60933c-2.40595,1.05048 -6.33975,2.10982 -8.97039,3.03814l-0.37564,-0.20553c0.74582,-0.14405 4.07285,-1.37334 4.83396,-1.71084c-0.12328,-0.84721 -1.03954,-2.16084 -1.30139,-3.0684c-1.20177,-4.16604 -2.94785,-8.18562 -4.23959,-12.32141c-0.91336,-2.92436 -1.62264,-5.86803 -2.61277,-8.78224l-7.14882,-20.58605c-1.04485,-3.00853 -5.14748,-13.90172 -5.08487,-16.52704z" fill="#e0b97b"/><path d="M122.13283,40.0191c1.44866,-0.41942 2.7721,-0.73616 4.27854,-0.88857c0.51373,0.2176 2.05638,0.52902 2.69083,0.68691c-0.78187,0.10365 -0.93106,0.12312 -1.70665,0.01143c-0.40349,1.72484 -0.49893,2.74989 -2.39227,3.16722c-0.05472,0.61255 0.62784,0.71395 0.18525,1.05563c-0.35553,-0.62237 -0.47833,-0.92736 -1.02216,-1.40472c-0.5456,-0.13938 -0.28149,-0.16159 -0.81406,0.11701l-0.29034,0.62495c-0.69238,0.3066 -2.31534,0.32881 -3.08289,0.15756l0.53321,-0.27666l-0.02253,-0.16288l-0.45016,-0.16175c0.10928,-0.62189 0.22854,-1.05451 0.39624,-1.65805c0.57924,0.48235 1.23444,1.10038 1.80547,1.61121c-0.07935,-0.93074 -0.0853,-1.93906 -0.10848,-2.87929z" fill="#a2876d"/><path d="M207.64056,102.97516c0.10139,0.68836 0.09013,1.03036 0.49088,1.59818c0.72264,0.32414 0.79345,0.22484 1.49678,-0.11508c-0.53916,0.60515 -0.62285,0.69109 -0.87232,1.45655l-0.07242,0.56427c0.84174,0.23273 0.79024,0.24705 1.09603,1.13273c0.6309,0.27763 0.67597,0.32495 1.34549,0.30692l0.42489,1.37221c0.70494,1.34018 1.228,4.11679 2.59603,4.547c1.52414,0.77092 1.54345,1.60687 1.90558,3.16465c3.67275,0.50054 7.29721,1.1419 10.95708,1.71196c8.04721,1.25343 16.1588,2.08181 24.16899,3.57151c0.72103,0.13407 1.39539,0.22822 2.10193,0.44372c1.21191,0.21486 9.14968,1.24008 9.54238,1.60799c-0.87232,0.30805 -6.54721,0.25091 -7.8412,0.25381c-3.89324,0.45097 -11.75536,0.31947 -15.85783,0.28455c-7.0397,-0.07645 -14.0794,-0.09914 -21.11749,-0.06808c-0.76448,0.59952 -1.85086,1.64469 -2.7441,1.77328c-0.92382,-0.32189 -0.98015,-0.78251 -1.43401,-1.71068c-2.06652,-0.21502 -6.79345,-0.08578 -9.07082,-0.09126l-18.21888,-0.01239l-16.12339,0.0787c-1.9265,0.00451 -7.1427,-0.1117 -8.70386,0.11588c-0.62768,-0.04104 -0.53112,0.05456 -0.99464,-0.24367l0.01577,-0.2831c0.09641,-2.053 0.2691,-1.74544 -0.3985,-3.9c0.50247,-0.58761 2.99163,-1.08911 4.04421,-1.46266c1.40826,-0.6235 4.08959,-1.37044 5.61212,-1.84796c3.10461,-0.96727 6.19957,-1.96722 9.28326,-2.99984c1.86856,-0.7949 4.4485,-1.34211 6.43777,-1.79887l7.62715,-2.26835c1.72371,-0.66389 11.42865,-3.15483 12.07082,-3.76465c0.58584,-0.96953 1.43079,-2.97924 2.2323,-3.41733z" fill="#cda169"/><path d="M209.77951,107.6118c0.6309,0.27763 0.67597,0.32495 1.34549,0.30692l0.42489,1.37221c0.70494,1.34018 1.228,4.11679 2.59603,4.547c0.05633,0.38997 0.11588,0.66148 0.10944,1.05676c-0.5971,0.00901 -1.31009,-0.06373 -1.72049,0.38369c-0.16255,0.18042 -0.29936,0.38401 -0.40397,0.60386l-0.12393,0.33943c-0.50376,-0.56942 -1.3471,-6.04732 -1.45011,-7.08396c-0.16255,-0.45161 -0.53755,-1.0867 -0.77736,-1.52591z" fill="#a2876d"/><path d="M209.77951,107.6118c0.6309,0.27763 0.67597,0.32495 1.34549,0.30692l0.42489,1.37221l-0.27843,0.0177c-0.09013,-0.30451 -0.0515,-0.23337 -0.21406,-0.50456l-0.50054,0.33364c-0.16255,-0.45161 -0.53755,-1.0867 -0.77736,-1.52591z" fill="#917960"/><path d="M164.37715,119.07216l0.11588,0.77688c-0.47318,0.29388 -0.76448,0.40236 -0.89485,0.96277l0.16255,1.28884c-1.03487,0.48557 -1.47586,1.25021 -2.14056,2.16856l0.09013,0.69238c-0.62768,-0.04104 -0.53112,0.05456 -0.99464,-0.24367l0.01577,-0.2831c0.09641,-2.053 0.2691,-1.74544 -0.3985,-3.9c0.50247,-0.58761 2.99163,-1.08911 4.04421,-1.46266z" fill="#696a6a"/><path d="M161.62017,124.26921c-0.05633,-1.26824 -0.20923,-2.64898 0.11749,-3.85365c0.35891,-0.40574 0.14002,-0.28181 0.68562,-0.3713c0.59871,0.28374 0.72425,0.3074 1.17489,0.76754l0.16255,1.28884c-1.03487,0.48557 -1.47586,1.25021 -2.14056,2.16856z" fill="#d6ceb7"/><path d="M253.27951,122.72977c1.21191,0.21486 9.14968,1.24008 9.54238,1.60799c-0.87232,0.30805 -6.54721,0.25091 -7.8412,0.25381c-0.853,-0.07371 -2.20333,0.04539 -2.90665,-0.28487c0.7162,-0.01384 1.35998,0.04844 1.88788,-0.3618l-0.03058,-0.52339c-0.35086,-0.46819 -0.19796,-0.31706 -0.82886,-0.53627z" fill="#706059"/><path d="M207.64056,102.97516c0.10139,0.68836 0.09013,1.03036 0.49088,1.59818c0.72264,0.32414 0.79345,0.22484 1.49678,-0.11508c-0.53916,0.60515 -0.62285,0.69109 -0.87232,1.45655l-0.07242,0.56427c-0.29292,0.2662 -0.44903,0.42521 -0.79185,0.63589l-0.14163,0.29759l-0.37661,0.12811c-0.69045,-0.08643 -1.06223,-0.36808 -1.66738,-0.71508l-0.29775,-0.4331c0.58584,-0.96953 1.43079,-2.97924 2.2323,-3.41733z" fill="#363b3d"/><path d="M207.64056,102.97516c0.10139,0.68836 0.09013,1.03036 0.49088,1.59818c0.72264,0.32414 0.79345,0.22484 1.49678,-0.11508c-0.53916,0.60515 -0.62285,0.69109 -0.87232,1.45655l-0.07242,0.56427c-0.29292,0.2662 -0.44903,0.42521 -0.79185,0.63589l-0.61159,-0.40992c-0.35569,-0.85445 0.33798,-2.04222 0.35891,-3.50907z" fill="#d3d6e6"/><path d="M205.40826,106.39249l0.29775,0.4331c-2.34657,1.07141 -3.58584,1.0294 -5.85032,1.89512l0.32511,-0.04233c-2.82135,1.15751 -3.56652,1.29866 -6.59227,1.63471l-0.25107,-0.15595c1.72371,-0.66389 11.42865,-3.15483 12.07082,-3.76465z" fill="#bfa470"/><path d="M216.74839,124.85858c-0.02092,-0.11829 0.02253,-0.32141 0.04024,-0.45531l0.3235,-0.13423c0.69367,0.18686 0.48605,0.028 0.89324,0.539c-0.76448,0.59952 -1.85086,1.64469 -2.7441,1.77328c-0.92382,-0.32189 -0.98015,-0.78251 -1.43401,-1.71068c0.41845,-0.13053 0.95923,-0.19925 1.40182,-0.27425c0.58584,-0.15966 0.70494,-0.24689 1.24088,-0.05038z" fill="#8c8a73"/><path d="M215.22908,124.59641c0.58584,-0.15966 0.70494,-0.24689 1.24088,-0.05038l0.27843,0.31255c-0.18991,0.51341 -0.30901,0.99447 -0.88197,1.10086c-0.42328,-0.33364 -0.48605,-0.82983 -0.63734,-1.36304z" fill="#f9f8f8"/><path d="M212.1309,115.88224c0.10461,-0.21985 0.24142,-0.42344 0.40397,-0.60386c0.41041,-0.44742 1.12339,-0.37468 1.72049,-0.38369c0.31223,0.53755 0.32511,0.56314 0.43616,1.16765l-0.15773,0.39496l-0.48444,0.14984l-0.00483,0.07709c-0.5617,0.23256 -0.79828,0.33589 -1.38412,0.47479l-0.65343,-0.93734z" fill="#dcdbd9"/><path d="M212.1309,115.88224c0.75,0.48267 1.07511,0.52339 1.91845,0.72489l-0.00483,0.07709c-0.5617,0.23256 -0.79828,0.33589 -1.38412,0.47479l-0.65343,-0.93734z" fill="#696a6a"/><path d="M214.14592,113.83793c1.52414,0.77092 1.54345,1.60687 1.90558,3.16465c-0.45064,0.38739 -0.47479,0.40864 -0.99785,0.68498c-0.24624,-0.89163 -0.18509,-0.85848 -1.00912,-1.00333l0.00483,-0.07709l0.48444,-0.14984l0.15773,-0.39496c-0.11105,-0.60451 -0.12393,-0.6301 -0.43616,-1.16765c0.00644,-0.39528 -0.05311,-0.66679 -0.10944,-1.05676z" fill="#78777b"/><path d="M185.7103,112.42548l0.0515,0.23852c-0.95118,0.91722 -5.19367,1.88079 -6.48927,1.56035c1.86856,-0.7949 4.4485,-1.34211 6.43777,-1.79887z" fill="#917960"/><path d="M214.04453,116.68423c0.82403,0.14485 0.76288,0.1117 1.00912,1.00333c-1.02843,0.02318 -1.49356,-0.04555 -2.39324,-0.52854c0.58584,-0.13889 0.82242,-0.24222 1.38412,-0.47479z" fill="#706059"/><path d="M164.49303,119.84903c0.10461,0.82677 0.14324,1.82752 -0.7323,2.25161l-0.16255,-1.28884c0.13036,-0.56041 0.42167,-0.66888 0.89485,-0.96277z" fill="#8c8a73"/><path d="M219.20279,133.99474c3.60676,-0.17108 7.3117,-0.02768 10.92328,0.08079c-1.18133,3.72747 -2.69099,7.48487 -4.12178,11.1301c-3.06921,7.93777 -6.19313,15.85445 -9.37178,23.74877c-1.31491,3.26878 -2.41577,6.46835 -3.86588,9.68884c-3.53433,0.09657 -7.17167,0.23659 -10.69152,0.00483c-0.89807,-2.47532 -2.11964,-5.10032 -3.09335,-7.60461c-4.79614,-12.34104 -9.69528,-24.5654 -14.25322,-37.00043l2.97908,-0.06148c2.70547,-0.07532 5.49946,0.10461 8.15665,-0.01819c0.79024,2.86786 2.21781,5.81347 3.17543,8.63401c2.62983,7.75156 6.09979,15.76642 8.47854,23.53729c0.28487,-0.8176 0.65182,-1.69957 0.98981,-2.49946c2.54453,-6.00724 4.58208,-12.17994 6.81599,-18.30258c1.35998,-3.72747 2.88895,-7.49421 3.87876,-11.33788z" fill="#2d1f34"/><path d="M78.614,77.025c-0.63541,-0.11153 -0.49136,0.01368 -0.80971,-0.38562l0.04474,-0.37226c0.81035,-1.12259 3.38063,-1.94565 4.68074,-1.27741c0.38755,0.42908 0.33074,0.67387 0.37178,1.2927c0.39013,4.40134 3.03219,10.97913 4.60944,15.25397c0.32736,0.86958 1.47183,3.95456 1.61218,4.77715c1.56567,3.57312 3.27505,9.53884 4.54909,13.40617c1.25359,3.80504 3.05553,7.83541 4.22495,11.44458c0.52001,0.24319 1.03117,0.47511 1.53782,0.74614c0.36245,0.84367 1.24828,2.72511 0.73568,3.57055c-0.24319,0.04201 -0.4133,0.08128 -0.66003,0.09319c-1.61845,-0.05794 -3.10091,0.04635 -4.70231,-0.23643c-0.20198,0.00789 -0.42006,-0.04683 -0.62897,-0.08224c-2.14008,0.44823 -2.30279,-0.1632 -2.97811,-2.00971l-0.44115,0.44855c-0.04217,0.74968 0.06921,0.55848 -0.29678,1.12162c-1.22977,0.75258 -3.29791,0.95569 -4.72693,0.91996c-0.74131,-0.02784 -1.48326,-0.03235 -2.22489,-0.01336c-0.59405,-0.39512 -1.3809,-1.42065 -1.20982,-2.19126c0.11459,-0.51518 0.49217,-0.62495 0.90402,-0.88423c-0.29131,-0.59018 -0.6993,-1.09909 -0.89517,-1.73482c-1.92489,-6.24995 -4.49839,-12.92189 -6.26829,-19.15944c-0.4838,-1.0154 -1.25182,-3.3618 -1.63889,-4.46781c-0.95907,-2.66958 -1.86502,-5.35783 -2.71738,-8.0633c-0.41475,-1.33101 -1.38686,-4.72098 -2.04093,-5.82489c-1.02264,-0.56186 -2.17387,-1.62119 -1.73466,-2.92371c0.13793,-0.41668 0.44694,-0.75499 0.8493,-0.9301c0.77302,-0.33879 1.60333,-0.27039 2.38117,-0.00692c0.63766,0.58712 1.0904,1.08235 1.67124,1.72178c0.34474,-0.13696 0.64506,-0.36888 0.95424,-0.5794l0.16577,-0.45113c0.49893,-0.32656 0.46931,-0.20858 1.19356,-0.20456c0.38675,0.0573 0.98981,-0.08112 1.40086,-0.15145l0.28648,0.5699c0.48444,-0.24142 1.33793,-0.57876 1.85858,-0.80215c-0.37774,-0.42972 -0.45676,-0.58648 -0.96406,-0.80311c0.73165,-0.48541 1.23396,-0.83369 1.76797,-1.53235z" fill="url(#color-2)"/><path d="M76.04227,101.75279l0.15016,-0.23063c-0.32446,-1.23074 -1.111,-3.38675 -1.60349,-4.59979c0.65939,-0.1669 4.78471,0.34844 5.68407,0.39834c0.08321,-0.13294 0.16626,-0.26588 0.2493,-0.39882c0.73825,1.27371 1.79855,5.54726 2.27189,5.76019c1.96239,5.45247 3.92318,11.14571 6.0383,16.52157c0.41588,1.25392 1.23267,3.35392 1.92763,4.49067c-0.04217,0.74968 0.06921,0.55848 -0.29678,1.12162c-1.22977,0.75258 -3.29791,0.95569 -4.72693,0.91996c-0.74131,-0.02784 -1.48326,-0.03235 -2.22489,-0.01336c-0.59405,-0.39512 -1.3809,-1.42065 -1.20982,-2.19126c0.11459,-0.51518 0.49217,-0.62495 0.90402,-0.88423c-0.29131,-0.59018 -0.6993,-1.09909 -0.89517,-1.73482c-1.92489,-6.24995 -4.49839,-12.92189 -6.26829,-19.15944z" fill="#9d8284"/><path d="M83.20574,122.64705c0.81084,0.31352 1.26744,0.83997 1.85311,0.89694l0.04233,0.103c0.91143,0.71685 0.71186,0.96985 0.63525,2.08889c-0.74131,-0.02784 -1.48326,-0.03235 -2.22489,-0.01336c-0.59405,-0.39512 -1.3809,-1.42065 -1.20982,-2.19126c0.11459,-0.51518 0.49217,-0.62495 0.90402,-0.88423z" fill="#484f62"/><path d="M83.51153,125.72253c0.54013,-0.43358 0.27505,-0.80488 0.49329,-1.68814c0.47591,-0.389 0.39624,-0.27071 1.09635,-0.38739c0.91143,0.71685 0.71186,0.96985 0.63525,2.08889c-0.74131,-0.02784 -1.48326,-0.03235 -2.22489,-0.01336z" fill="#d3d6e6"/><path d="M69.64506,83.39678c-1.02264,-0.56186 -2.17387,-1.62119 -1.73466,-2.92371c0.13793,-0.41668 0.44694,-0.75499 0.8493,-0.9301c0.77302,-0.33879 1.60333,-0.27039 2.38117,-0.00692c0.63766,0.58712 1.0904,1.08235 1.67124,1.72178c0.34474,-0.13696 0.64506,-0.36888 0.95424,-0.5794l0.16577,-0.45113c0.49893,-0.32656 0.46931,-0.20858 1.19356,-0.20456l0.32028,0.29855c-0.10928,0.32382 -0.05343,0.25655 -0.24866,0.51953c0.45821,1.32183 1.20708,2.57704 1.68412,3.96052c1.4184,4.11325 2.78562,8.28734 4.13401,12.42296c0.38385,1.17715 1.58739,4.49453 1.77876,5.45778c-0.47334,-0.21293 -1.53364,-4.48648 -2.27189,-5.76019c-0.08305,0.13294 -0.16609,0.26588 -0.2493,0.39882c-0.89936,-0.04989 -5.02468,-0.56524 -5.68407,-0.39834c0.49249,1.21304 1.27902,3.36905 1.60349,4.59979l-0.15016,0.23063c-0.4838,-1.0154 -1.25182,-3.3618 -1.63889,-4.46781c-0.95907,-2.66958 -1.86502,-5.35783 -2.71738,-8.0633c-0.41475,-1.33101 -1.38686,-4.72098 -2.04093,-5.82489z" fill="#bfa470"/><path d="M69.64506,83.39678c-1.02264,-0.56186 -2.17387,-1.62119 -1.73466,-2.92371c0.13793,-0.41668 0.44694,-0.75499 0.8493,-0.9301c0.77302,-0.33879 1.60333,-0.27039 2.38117,-0.00692c-0.26701,0.30821 -0.25494,0.28777 -0.3985,0.66937l0.36196,1.26792c-0.29324,0.65279 -0.37854,0.5905 -1.09329,0.77527c-0.09109,0.36116 -0.178,0.84286 -0.36599,1.14818z" fill="#78777b"/><path d="M70.01105,82.24861c-0.6676,0.02092 -0.92269,0.08482 -1.38686,-0.42006l0.01964,-0.44099c0.45676,-0.80697 1.15333,-1.5074 2.09855,-1.18214l0.36196,1.26792c-0.29324,0.65279 -0.37854,0.5905 -1.09329,0.77527z" fill="#f9f8f8"/><path d="M70.74238,80.20542c0.14356,-0.3816 0.13149,-0.36116 0.3985,-0.66937c0.63766,0.58712 1.0904,1.08235 1.67124,1.72178l-0.27344,0.4772c-0.56604,0.07564 -0.67323,0.08916 -1.23702,0.04603l-0.19732,-0.30773z" fill="url(#color-3)"/><path d="M73.76636,80.67843l0.16577,-0.45113c0.49893,-0.32656 0.46931,-0.20858 1.19356,-0.20456l0.32028,0.29855c-0.10928,0.32382 -0.05343,0.25655 -0.24866,0.51953c-1.26389,0.70107 -1.26969,0.7294 -2.65864,0.89421l0.27344,-0.4772c0.34474,-0.13696 0.64506,-0.36888 0.95424,-0.5794z" fill="#917960"/><path d="M78.614,77.025c-0.63541,-0.11153 -0.49136,0.01368 -0.80971,-0.38562l0.04474,-0.37226c0.81035,-1.12259 3.38063,-1.94565 4.68074,-1.27741c0.38755,0.42908 0.33074,0.67387 0.37178,1.2927c0.39013,4.40134 3.03219,10.97913 4.60944,15.25397l-0.24126,0.10027l-0.32881,-0.56668l-0.24077,0.06116c-0.36148,1.40488 0.41202,1.97768 -0.01738,2.89957c-1.08975,0.21341 -1.64485,-1.17071 -2.77259,0.36631c-0.88374,1.20435 -0.01545,1.68718 -1.49324,2.36153c-0.83208,-2.59217 -1.77876,-5.27285 -2.61567,-7.86518c-0.65263,-2.02194 -1.87098,-6.72441 -2.98825,-8.45215c0.48444,-0.24142 1.33793,-0.57876 1.85858,-0.80215c-0.37774,-0.42972 -0.45676,-0.58648 -0.96406,-0.80311c0.73165,-0.48541 1.23396,-0.83369 1.76797,-1.53235z" fill="#bfa470"/><path d="M78.614,77.025c-0.63541,-0.11153 -0.49136,0.01368 -0.80971,-0.38562l0.04474,-0.37226c0.81035,-1.12259 3.38063,-1.94565 4.68074,-1.27741c0.38755,0.42908 0.33074,0.67387 0.37178,1.2927c-0.03315,0.45483 -0.00322,1.17344 -0.22355,1.48439c-0.42763,-0.36518 -0.31191,-0.51277 -0.56797,-0.89211c-0.8456,0.10864 -1.04759,0.10622 -1.88739,0.05198c-0.59356,0.1125 -0.36245,-0.02656 -0.7471,0.37693z" fill="#363b3d"/><path d="M78.614,77.025c0.90773,-0.54592 1.70408,-2.18417 3.27634,-1.48374c0.37822,0.61255 0.25075,0.47012 0.21969,1.33342c-0.8456,0.10864 -1.04759,0.10622 -1.88739,0.05198c-0.59356,0.1125 -0.36245,-0.02656 -0.7471,0.37693z" fill="#f9f8f8"/><path d="M79.47554,77.30359c0.38466,-0.40349 0.15354,-0.26443 0.7471,-0.37693l0.68192,0.23015c-0.07548,0.94394 -1.55359,1.70343 -2.23294,2.48224c-0.37774,-0.42972 -0.45676,-0.58648 -0.96406,-0.80311c0.73165,-0.48541 1.23396,-0.83369 1.76797,-1.53235z" fill="#917960"/><path d="M75.1257,80.02275c0.38675,0.0573 0.98981,-0.08112 1.40086,-0.15145l0.28648,0.5699c1.11727,1.72774 2.33562,6.4302 2.98825,8.45215c0.83691,2.59233 1.78358,5.27302 2.61567,7.86518c1.63906,5.96942 4.11389,11.714 5.90359,17.6419c0.35649,1.18085 0.80408,2.3765 1.21384,3.54335c0.34587,1.05209 1.55198,4.43417 1.6669,5.30198l-0.44115,0.44855c-0.69496,-1.13675 -1.51175,-3.23675 -1.92763,-4.49067c-2.11513,-5.37586 -4.07591,-11.0691 -6.0383,-16.52157c-0.19136,-0.96325 -1.3949,-4.28063 -1.77876,-5.45778c-1.34839,-4.13562 -2.71561,-8.30971 -4.13401,-12.42296c-0.47704,-1.38348 -1.22591,-2.63868 -1.68412,-3.96052c0.19523,-0.26298 0.13938,-0.19571 0.24866,-0.51953z" fill="#ccab95"/><path d="M89.53439,117.94378c0.34587,1.05209 1.55198,4.43417 1.6669,5.30198l-0.44115,0.44855c-0.69496,-1.13675 -1.51175,-3.23675 -1.92763,-4.49067l0.10928,-0.00773c0.43519,0.8324 0.82532,1.82511 1.19292,2.7008l0.17237,-0.1096c0.18879,-1.4052 -0.89469,-2.14957 -0.77269,-3.84335z" fill="#b5a6bc"/><path d="M94.1794,125.25547c1.20612,-1.02666 3.6338,-3.59598 4.93729,-1.30687c0.29211,0.51293 0.36389,0.4471 0.23112,0.99657c0.2868,0.10333 0.43938,0.15418 0.70832,0.29501l-0.54544,0.33396c-1.61845,-0.05794 -3.10091,0.04635 -4.70231,-0.23643c-0.20198,0.00789 -0.42006,-0.04683 -0.62897,-0.08224z" fill="#d3d6e6"/><path d="M94.80837,125.33771c1.15848,-0.69399 3.18621,-0.47784 4.53943,-0.39254c0.2868,0.10333 0.43938,0.15418 0.70832,0.29501l-0.54544,0.33396c-1.61845,-0.05794 -3.10091,0.04635 -4.70231,-0.23643z" fill="#484f62"/><path d="M87.511,91.53637c0.32736,0.86958 1.47183,3.95456 1.61218,4.77715c-0.06229,0.05279 -0.00644,0.01674 -0.2617,0.10429l-0.08031,-0.36245c-1.10681,-0.42538 -1.58627,-3.35923 -1.51143,-4.41872z" fill="#a2876d"/><path d="M203.25644,87.74292c0.60998,0.01465 0.88197,0.04539 1.48391,0.14952c1.4485,1.10038 1.34871,1.89431 0.25268,3.25075l-0.04989,0.43729c1.25858,2.05671 1.32618,3.13197 1.79936,5.54437c0.38948,0.08144 1.18133,0.16143 1.37124,0.40059c-0.5633,0.5522 -0.58423,0.38627 -0.61159,0.96985c0.47479,0.72843 0.98176,1.12983 1.1588,1.88208c-0.11105,0.29083 -0.03541,0.21003 -0.24946,0.39673c-1.41792,0.61577 -2.80365,1.22543 -4.29721,1.64936c-2.18079,1.08251 -6.25429,2.09131 -8.67006,2.89056c-9.13197,3.0235 -18.30418,5.91599 -27.54721,8.58235c-1.0735,0.30917 -2.78273,0.77704 -3.77414,1.2103c-1.46459,0.44324 -3.84496,1.82945 -4.99587,1.35386c-0.79297,-0.75241 -1.561,-5.45102 -1.78278,-6.75225c-0.27393,-0.53256 -0.74694,-3.02817 -0.87393,-3.69077c-1.65,-2.02741 -4.0743,-3.572 0.14759,-4.38541c0.51502,-0.10687 1.0323,-0.20311 1.55118,-0.28889c0.51229,0.34683 0.39431,0.57715 0.375,1.18729c-0.18444,0.55832 -0.15724,0.27167 -0.01754,0.8934l0.87441,-0.14662c4.07173,-1.36368 8.47033,-2.82377 12.58889,-3.9787c1.6191,-0.50553 3.24785,-0.98095 4.88466,-1.42597c1.61266,-0.37259 0.94474,-1.9191 2.1824,-2.41497c0.90612,0.11524 1.25536,0.74533 1.82994,1.46153l3.6985,-1.2713c3.05955,-1.12774 6.68401,-2.11127 9.80311,-3.08788c1.3133,-0.4117 4.64807,-1.44126 5.83745,-1.62006c2.34174,-0.7632 0.74195,-2.25515 3.03058,-3.197z" fill="url(#color-4)"/><path d="M157.34421,109.70826c0.60225,0.67854 0.73085,1.83927 0.87827,2.72446c0.54528,0.06422 1.6904,0.05826 1.90606,0.5324c0.92028,2.02387 2.55386,1.11727 3.99431,2.14152c-1.46459,0.44324 -3.84496,1.82945 -4.99587,1.35386c-0.79297,-0.75241 -1.561,-5.45102 -1.78278,-6.75225z" fill="#b0ab91"/><path d="M176.87446,97.87259c1.61266,-0.37259 0.94474,-1.9191 2.1824,-2.41497c0.90612,0.11524 1.25536,0.74533 1.82994,1.46153l3.6985,-1.2713c-0.46835,0.63171 -1.92972,1.10247 -2.7441,1.4485l0.14807,-0.01223c-1.11212,0.43729 -1.63036,0.51325 -2.82457,0.72296l-0.13197,0.01062c-1.11052,0.09592 -1.01878,0.14791 -2.15826,0.05488z" fill="#898b8b"/><path d="M204.94313,91.58047c1.25858,2.05671 1.32618,3.13197 1.79936,5.54437c0.38948,0.08144 1.18133,0.16143 1.37124,0.40059c-0.5633,0.5522 -0.58423,0.38627 -0.61159,0.96985c0.47479,0.72843 0.98176,1.12983 1.1588,1.88208c-0.11105,0.29083 -0.03541,0.21003 -0.24946,0.39673c-0.38627,-0.04603 -0.38144,-0.01626 -0.67436,-0.26282l-0.02736,-0.37387c-0.47157,-1.12999 -1.15397,-2.32983 -1.55955,-3.41894c-0.57457,-1.54635 -1.08155,-3.36341 -1.55472,-4.95869z" fill="#55554a"/><path d="M203.25644,87.74292c0.60998,0.01465 0.88197,0.04539 1.48391,0.14952c1.4485,1.10038 1.34871,1.89431 0.25268,3.25075c-0.37017,-0.18058 -0.36534,-0.15193 -0.5971,-0.48589c-2.21781,-0.52838 -0.67918,-1.91347 -1.13948,-2.91438z" fill="#dcdbd9"/><path d="M204.74034,87.89244c1.4485,1.10038 1.34871,1.89431 0.25268,3.25075c-0.37017,-0.18058 -0.36534,-0.15193 -0.5971,-0.48589c0.40558,-1.11631 0.3412,-1.57564 0.34442,-2.76486z" fill="#363b3d"/><path d="M156.47028,106.01749c-1.65,-2.02741 -4.0743,-3.572 0.14759,-4.38541l0.09142,0.57071c-0.70027,0.26363 -0.69351,0.13938 -1.1007,0.63557c0.06872,0.37629 -0.00499,0.26153 0.20923,0.53385c0.22532,0.2044 1.10585,1.1971 1.2412,1.43305z" fill="url(#color-5)"/><path d="M203.25644,87.74292c0.4603,1.00091 -1.07833,2.386 1.13948,2.91438c0.23176,0.33396 0.22693,0.30531 0.5971,0.48589l-0.04989,0.43729l-0.34764,0.17929c-0.06438,-0.32575 -0.09013,-0.30515 -0.24624,-0.61191c-1.32779,-0.72296 -2.63144,-0.08514 -4.12339,-0.20794c2.34174,-0.7632 0.74195,-2.25515 3.03058,-3.197z" fill="#696a6a"/><path d="M156.61786,101.63208c0.51502,-0.10687 1.0323,-0.20311 1.55118,-0.28889c0.51229,0.34683 0.39431,0.57715 0.375,1.18729c-0.18444,0.55832 -0.15724,0.27167 -0.01754,0.8934c-0.71604,0.2382 -1.94421,0.03718 -2.70869,-0.05166c-0.21422,-0.27232 -0.1405,-0.15756 -0.20923,-0.53385c0.40719,-0.49619 0.40043,-0.37194 1.1007,-0.63557z" fill="#dcdbd9"/><path d="M156.61786,101.63208c0.51502,-0.10687 1.0323,-0.20311 1.55118,-0.28889c0.51229,0.34683 0.39431,0.57715 0.375,1.18729l-1.83476,-0.32768z" fill="#484f62"/><path d="M176.87446,97.87259c1.13948,0.09303 1.04775,0.04104 2.15826,-0.05488l0.13197,-0.01062c-1.25858,0.99834 -5.51395,1.55021 -7.17489,1.49147c1.6191,-0.50553 3.24785,-0.98095 4.88466,-1.42597z" fill="#bfa470"/><path d="M207.70976,100.13739l0.02736,0.37387c0.29292,0.24657 0.28809,0.21679 0.67436,0.26282c-1.41792,0.61577 -2.80365,1.22543 -4.29721,1.64936c0.35086,-1.30767 2.65719,-0.9824 3.59549,-2.28605z" fill="#917960"/><path d="M158.5265,103.42387l0.87441,-0.14662c-0.63251,0.70896 -0.95263,0.72908 -1.86905,0.97709c-0.11604,0.13407 -0.38208,0.42312 -0.47285,0.55091c-0.13535,-0.23594 -1.01588,-1.22865 -1.2412,-1.43305c0.76448,0.08884 1.99265,0.28986 2.70869,0.05166z" fill="#898b8b"/><path d="M234.73069,133.92135c0.75483,0.10011 3.07403,0.03203 3.95601,0.02865c2.10676,-0.00354 4.21191,0.0243 6.31706,0.08369c-0.32028,11.80059 -0.1883,24.07725 -0.19957,35.9073c6.74839,0.0338 13.49517,0.03058 20.24356,-0.00966c-0.03541,2.84549 -0.11427,5.81009 -0.04989,8.64592c-0.80311,0.15612 -6.94313,0.0338 -8.24195,0.0338l-21.95118,-0.02897c-0.30901,-14.69742 0.32189,-30.00853 -0.07403,-44.66073z" fill="#2d1f34"/><path d="M19.97108,133.96352c2.9757,0.13181 6.94651,0.02189 10.06915,0.0853c-0.26878,3.02141 -0.10107,8.99356 -0.10123,12.23739l-0.01851,23.66926c6.68321,0.08369 13.41245,-0.03863 20.11094,0.00322c-0.01545,2.86481 0.00933,5.72961 0.07403,8.59442c-7.27532,0.12554 -14.59474,-0.07242 -21.87682,0.04506c-2.71964,0.04345 -5.53938,0.02575 -8.25241,-0.07886z" fill="#2d1f34"/><path d="M147.97291,133.9228c3.54383,0.02237 6.85542,-0.0132 10.41212,0.1133c-0.22741,7.84378 -0.18734,15.71749 -0.17414,23.56642c0.01159,6.9581 -0.13069,14.04126 -0.01545,20.98922c-3.47784,0.04506 -6.9507,-0.05311 -10.43224,0.02575c0.21969,-4.59979 0.12876,-9.45386 0.15402,-14.08262z" fill="#2d1f34"/><path d="M66.778,99.80842c-0.16288,-0.38771 -0.44533,-1.02409 -0.15032,-1.40649c0.86781,-1.1258 2.21636,-1.80773 3.58455,-2.11738c0.75,-0.1698 1.07092,-0.1566 1.70408,0.24705c0.23997,0.28745 0.422,0.52065 0.703,0.77382l0.07226,0.27731c-0.83289,0.7595 -1.10955,0.58745 -1.89061,1.62538c0.69802,1.42983 1.67446,5.29201 2.21588,6.98192c0.37613,1.17344 1.24249,3.66518 1.5008,4.71534c0.57296,-0.39158 0.65858,-0.52162 1.3088,-0.49474c0.57779,0.29067 0.37854,0.07693 0.64104,0.64185c-0.04104,1.16733 -0.62591,1.52784 -1.65306,1.94453c0.42731,2.49802 1.86776,6.07806 2.66041,8.59024c0.27312,0.86572 0.85317,2.08004 1.01813,2.92758c-0.39174,0.24689 -0.17591,0.17833 -0.6845,0.15209c-1.27564,0.25333 -4.72452,0.61899 -5.94109,0.42972c-1.88627,-0.02768 -4.01443,-0.30177 -6.05569,-0.33187l-39.35134,-0.22661c-1.02441,0.0346 -3.29807,0.20327 -4.04308,-0.31127l0.07999,0.20038l-0.2147,-0.13535l0.20488,-0.10751l-0.17913,0.19024l0.0272,-0.16529c1.54651,-0.68965 4.547,-0.94168 6.34748,-1.16524c0.51261,-0.19233 5.83069,-0.99818 6.47511,-1.04501c1.27065,-0.35504 5.06556,-0.77688 6.51776,-0.96792c3.46722,-0.46239 6.93138,-0.94748 10.39233,-1.45526c3.49523,-0.52339 11.19979,-2.02162 14.34319,-2.08278l1.19984,-0.31094c-0.03267,-0.45579 -0.22146,-0.83273 -0.38804,-1.26985c-0.25574,-0.99447 -0.37484,-1.62859 -0.71089,-3.00241c-0.73568,-3.00821 -1.62666,-6.56894 -2.82811,-9.47511c-0.1529,-0.09431 -0.30595,-0.18863 -0.45885,-0.28278c-2.88863,-2.23036 -1.65193,-5.78981 1.99458,-3.62446c0.36035,0.30193 0.72715,0.70397 1.16588,0.71749c0.3095,-0.21711 0.22291,-0.10767 0.39222,-0.43664z" fill="#876a89"/><path d="M52.06819,119.57591c3.49523,-0.52339 11.19979,-2.02162 14.34319,-2.08278l1.42033,0.09303c-2.0794,0.29984 -8.59345,0.72312 -10.1559,1.77023c-0.09962,0.37484 0.54592,1.36481 0.76191,1.72178c0.17977,0.2971 0.44614,0.55268 0.60225,0.86009c0.65923,1.29818 -0.06953,1.87774 1.73514,2.24517c0.83804,0.1706 10.66722,0.66357 11.04802,0.42924c0.02575,-0.01577 0.18766,-0.17511 0.20392,-0.19008c0.39222,-0.36631 1.19453,-0.55091 1.7279,-0.50311c0.40606,0.03653 0.9544,0.20907 1.28401,0.4492c0.61513,0.68643 1.68525,-0.08868 2.76953,0.29823c-1.27564,0.25333 -4.72452,0.61899 -5.94109,0.42972c-1.88627,-0.02768 -4.01443,-0.30177 -6.05569,-0.33187l-39.35134,-0.22661c-1.02441,0.0346 -3.29807,0.20327 -4.04308,-0.31127l0.07999,0.20038l-0.2147,-0.13535l0.20488,-0.10751l-0.17913,0.19024l0.0272,-0.16529c1.54651,-0.68965 4.547,-0.94168 6.34748,-1.16524c0.51261,-0.19233 5.83069,-0.99818 6.47511,-1.04501c1.27065,-0.35504 5.06556,-0.77688 6.51776,-0.96792c3.46722,-0.46239 6.93138,-0.94748 10.39233,-1.45526z" fill="url(#color-6)"/><path d="M35.1581,121.99909c1.27065,-0.35504 5.06556,-0.77688 6.51776,-0.96792c3.46722,-0.46239 6.93138,-0.94748 10.39233,-1.45526c-0.25381,0.17302 -0.41668,0.28535 -0.68144,0.44308l0.46754,0.26588c-0.9573,0.48686 -5.34013,1.91073 -6.34764,2.03852c-0.36937,-0.1228 -0.55606,-0.17446 -0.89211,-0.38095c-1.28305,-0.78863 -3.8485,1.5029 -4.58771,-0.35746c-1.28546,-0.15225 -3.62253,0.8052 -4.86872,0.41411z" fill="#6c587a"/><path d="M26.46035,124.53814c-1.02441,0.0346 -3.29807,0.20327 -4.04308,-0.31127l0.07999,0.20038l-0.2147,-0.13535l0.20488,-0.10751l-0.17913,0.19024l0.0272,-0.16529c1.54651,-0.68965 4.547,-0.94168 6.34748,-1.16524l0.2015,0.33026c-0.21212,0.18525 -4.62554,0.58584 -5.3155,0.66695c1.50306,0.26057 3.49313,0.04136 4.91588,0.28004c-0.70719,0.02736 -1.35338,0.00612 -2.02452,0.21679z" fill="#2d1f34"/><path d="M75.03895,124.36867c0.61513,0.68643 1.68525,-0.08868 2.76953,0.29823c-1.27564,0.25333 -4.72452,0.61899 -5.94109,0.42972c0.21454,-0.19683 0.44775,-0.35858 0.68176,-0.53337c0.83466,0.19378 0.98836,0.211 1.79678,-0.05601c0.40606,0.01738 0.27795,0.00805 0.69303,-0.13857z" fill="#666a94"/><path d="M72.54914,124.56325c0.68659,-0.44823 1.06127,-0.53884 1.79678,-0.05601c-0.80842,0.26701 -0.96212,0.24979 -1.79678,0.05601z" fill="#d3d6e6"/><path d="M45.34378,122.90955l0.22114,-0.03476l0.08562,0.18348c-0.61207,0.66003 -1.6199,0.54834 -2.44072,0.48251l-0.24737,-0.0074l-0.10365,-0.18718c0.89968,-0.41701 1.53026,0.1434 2.48498,-0.43664z" fill="#6c587a"/><path d="M46.63374,123.18492c0.34877,-0.00258 0.22371,-0.02881 0.53337,0.13407c-0.12731,0.5316 -0.16609,0.42747 -0.62398,0.88535c-0.22452,-0.30579 -0.36937,-0.41266 -0.36116,-0.77897z" fill="#6c587a"/><path d="M66.778,99.80842c-0.16288,-0.38771 -0.44533,-1.02409 -0.15032,-1.40649c0.86781,-1.1258 2.21636,-1.80773 3.58455,-2.11738c0.75,-0.1698 1.07092,-0.1566 1.70408,0.24705c0.23997,0.28745 0.422,0.52065 0.703,0.77382l0.07226,0.27731c-0.83289,0.7595 -1.10955,0.58745 -1.89061,1.62538c-1.21996,-0.51052 -3.41765,-0.51631 -3.90515,0.97436z" fill="#78777b"/><path d="M71.91631,96.5316c0.23997,0.28745 0.422,0.52065 0.703,0.77382c-0.42795,0.18074 -0.77173,0.39914 -1.20563,0.31127c-0.23804,-0.29759 -0.37725,-0.47205 -0.58825,-0.79571l0.14195,-0.10091l0.4125,0.30113z" fill="#696a6a"/><path d="M67.22318,115.91234c0.63444,-0.58632 1.54603,-1.01491 2.41931,-1.00783c1.51416,0.68723 0.83675,2.79512 0.23433,3.95327c-1.06448,0.05086 -0.98804,-1.214 -2.1544,-1.63455l-0.11121,-0.04104c-0.03267,-0.45579 -0.22146,-0.83273 -0.38804,-1.26985z" fill="#9d7594"/><path d="M63.22532,103.15204c-2.88863,-2.23036 -1.65193,-5.78981 1.99458,-3.62446c-0.17688,0.14646 -0.53256,0.46046 -0.71009,0.56749c-0.22178,0.98804 -0.24126,1.49678 -1.06931,2.10193c-0.05762,0.42827 -0.03525,0.57087 -0.21518,0.95504z" fill="#696a6a"/><path d="M63.4405,102.197c-0.54319,-0.78798 -0.84834,-1.12613 -0.83385,-2.06298c0.44147,-0.80343 1.23847,-0.361 1.90317,-0.03895c-0.22178,0.98804 -0.24126,1.49678 -1.06931,2.10193z" fill="#f9f8f8"/><path d="M74.51765,110.90536c0.57296,-0.39158 0.65858,-0.52162 1.3088,-0.49474c0.57779,0.29067 0.37854,0.07693 0.64104,0.64185c-0.04104,1.16733 -0.62591,1.52784 -1.65306,1.94453c-0.29855,-0.82709 -0.32044,-1.23476 -0.29678,-2.09163z" fill="#b5a6bc"/><path d="M135.27135,111.24431c0.10139,1.57564 2.47935,9.68031 3.18589,11.26609l0.82339,0.55799c0.5551,-0.17398 0.4677,-0.24802 0.89179,-0.08482c-0.53916,1.10311 -0.55011,1.05386 -0.75756,2.28718c-1.2177,0.79667 -1.9595,0.56797 -2.57302,-0.72087c-0.09238,-0.34362 -0.10445,-0.33332 -0.2617,-0.65762l-0.37307,-0.05134c-0.58729,0.3441 -0.89855,0.59903 -1.42677,1.01379c-2.96443,0.38176 -6.96792,0.36116 -9.94651,0.21679c-0.43471,-2.16116 -1.261,-4.74721 -2.04109,-6.81389c-0.35005,-0.92688 -1.37672,-1.52173 -1.56808,-2.71384c0.3074,-1.12178 0.89067,-0.79168 1.73611,-1.24941c1.26727,-0.68611 0.90209,-0.90402 2.37119,-0.50408c0.7492,-0.014 1.63777,-0.1809 2.31808,-0.5007c2.52264,-0.8551 5.04383,-1.15767 7.62135,-2.04528z" fill="#dbc382"/><path d="M139.28063,123.0684c0.5551,-0.17398 0.4677,-0.24802 0.89179,-0.08482c-0.53916,1.10311 -0.55011,1.05386 -0.75756,2.28718c-1.2177,0.79667 -1.9595,0.56797 -2.57302,-0.72087l0.27779,-0.10864c0.04394,-0.23916 0.12312,-0.53047 0.18122,-0.77221c0.93315,0.01432 1.4221,0.20826 1.97977,-0.60064z" fill="#dcdbd9"/><path d="M136.84185,124.54989l0.27779,-0.10864c1.10971,0.52999 1.75719,0.30773 2.29523,0.82951c-1.2177,0.79667 -1.9595,0.56797 -2.57302,-0.72087z" fill="#484f62"/><path d="M125.33192,113.79029c0.7492,-0.014 1.63777,-0.1809 2.31808,-0.5007c-0.13326,0.86942 -0.05665,1.25633 -0.44614,2.02629l-0.272,0.05697c-0.43391,-0.48106 -1.1073,-1.41647 -1.59995,-1.58256z" fill="#d6ceb7"/><path d="M137.30086,123.66905c-0.45789,-0.03283 -0.54431,-0.01127 -0.975,-0.1883l0.08755,-0.20536c0.67645,-0.26749 1.35789,-0.52259 2.04383,-0.76497l0.82339,0.55799c-0.55767,0.80891 -1.04662,0.61497 -1.97977,0.60064z" fill="#696a6a"/><path d="M139.46459,109.30992c0.88825,-0.07838 1.9302,-0.45145 2.80542,-0.69866c3.51937,-0.99447 5.86738,-2.22602 9.55815,-2.2508c0.23997,0.78509 0.51792,1.55279 0.83015,2.3118c1.16958,2.84372 1.95644,5.82763 3.10284,8.67956c-4.55472,1.92779 -9,2.58927 -13.29785,4.86615c-0.70429,-2.27994 -2.68262,-7.81513 -3.04217,-9.69045c-0.31255,-1.15011 -1.003,-2.48305 0.04345,-3.2176z" fill="#dbc382"/><path d="M139.42114,112.52752c-0.31255,-1.15011 -1.003,-2.48305 0.04345,-3.2176c0.36921,1.07672 0.38401,2.15021 -0.04345,3.2176z" fill="#b0ab91"/><path d="M164.85193,154.25697c6.35408,-0.02382 12.92382,-0.14195 19.26502,0.07017c0.03058,2.34061 0.18509,6.56717 -0.01931,8.72221c-6.38948,-0.13036 -12.78219,-0.13841 -19.17167,-0.02736c-0.21084,-2.6868 -0.1191,-6.03219 -0.07403,-8.76502z" fill="#2d1f34"/><path d="M117.62672,117.40912c0.88085,1.43739 2.16808,5.64109 2.75633,7.4485c-2.21153,0.05553 -12.08369,-0.12071 -13.31894,0.31642c-0.58149,-0.17977 -0.93122,-0.14308 -1.53991,-0.14405l-1.23943,0.01304l-0.47961,0.34651c-0.34313,-3.4492 -2.16389,-4.79002 2.29442,-5.26626c3,-1.02811 5.18256,-1.6574 8.29571,-2.38374c1.00751,0.42312 2.19641,-0.03702 3.23144,-0.33042z" fill="#dbc382"/><path d="M103.80515,125.38954c-0.34313,-3.4492 -2.16389,-4.79002 2.29442,-5.26626c0.15547,0.55848 0.18686,0.2992 -0.09496,0.80376l-0.23804,0.12151c0.40767,0.689 0.12135,2.5022 0.18959,3.6573c-0.22935,0.24367 -0.13004,0.17511 -0.43197,0.32414l-1.23943,0.01304z" fill="#dcdbd9"/><path d="M103.80515,125.38954c-0.34313,-3.4492 -2.16389,-4.79002 2.29442,-5.26626c0.15547,0.55848 0.18686,0.2992 -0.09496,0.80376l-0.23804,0.12151c-0.59582,0.14485 -1.01073,0.16465 -1.39683,0.61448c-0.44388,1.05386 -0.05874,2.07087 -0.08498,3.37999z" fill="#898b8b"/><path d="M263.33852,121.52124c1.7559,-0.03975 3.51341,-0.02157 5.2677,0.05472c-0.03058,1.4382 -0.14002,3.88197 0.00805,5.22956c-1.66416,0.10815 -3.55687,0.09222 -5.24517,0.11089c-0.07242,-1.8235 -0.05311,-3.57409 -0.03058,-5.39517z" fill="#191e23"/><path d="M264.07725,122.29168c1.1588,-0.04539 2.57511,0.01271 3.75322,0.02977c-0.26395,1.2 -0.28809,2.42205 -0.25268,3.64329c-0.31867,0.30241 -2.84388,0.21583 -3.44099,0.21937c0.03058,-1.37253 -0.00322,-2.52908 -0.05955,-3.89244z" fill="#f9f8f8"/><path d="M16.06339,121.48294c1.757,0.08707 3.66885,0.04249 5.5049,0.12521c-0.02414,0.87972 -0.0412,4.24362 -0.36406,4.87613c-0.99914,0.24866 -3.97194,0.23498 -5.28842,0.34008c0.12145,-1.93423 0.20693,-3.41282 0.14757,-5.34142z" fill="#191e23"/><path d="M16.72307,122.10145c1.29705,0.08321 2.80832,0.03476 4.12355,0.02414c-0.12361,1.09957 -0.13857,2.75842 -0.18428,3.90193c-1.41776,-0.02302 -2.54952,-0.02253 -3.96293,0.16384c0.17994,-1.60268 0.16078,-2.48659 0.02366,-4.08991z" fill="#f9f8f8"/><path d="M16.10359,185.43509c1.6941,0.01931 3.46529,-0.00161 5.14394,0.17865c0.12393,1.46137 0.22516,3.27843 0.21679,4.72854l-0.22597,0.17865c-1.52527,0.19957 -3.79651,0.18187 -5.39514,0.20762c0.1822,-1.72371 0.22706,-3.5617 0.26038,-5.29345z" fill="#191e23"/><path d="M16.76813,185.85837c1.24201,0.28165 2.6213,0.20279 3.88519,0.14968c-0.10397,1.25376 -0.10365,2.78433 0.09979,4.02521c-1.24828,-0.05955 -2.76808,0.00805 -4.03616,0.03058c0.06003,-1.35676 0.04136,-2.83906 0.05118,-4.20547z" fill="#f9f8f8"/><path d="M263.73605,185.50107c1.4324,-0.15933 3.12554,-0.09818 4.5853,-0.08691c0,0.90129 0.38627,4.64646 0.18187,5.1985l-0.49088,0.0853c-1.77039,0.0338 -3.23659,-0.01609 -5.00858,-0.10461c0.06921,-1.13466 0.15129,-4.34227 0.7323,-5.09227z" fill="#191e23"/><path d="M264.52307,185.94206c0.88197,-0.02575 2.05848,0.0853 2.96459,0.14485c0.04185,0.78702 0.29453,3.22371 0.19635,3.78863l-0.39592,0.1191c-1.12983,0.0177 -2.25966,0.00644 -3.38948,-0.03541c0.09174,-0.95118 0.13519,-3.40558 0.62446,-4.01717z" fill="#f9f8f8"/><path d="M119.70418,109.30542c0.49185,0.63702 0.60209,0.8596 0.86041,1.62248c0.13568,-0.51567 0.00595,-0.89855 0.31658,-1.29721c0.60982,0.68578 -0.24238,1.73965 0.66615,1.82672l0.40123,0.21212c-0.59211,0.25703 -0.98643,0.41137 -1.53814,0.76046c-0.25445,1.15896 -0.55606,2.41143 -0.74372,3.57489c-0.57795,0.36679 -1.58932,0.96052 -2.03997,1.40424c-1.03503,0.2934 -2.22393,0.75354 -3.23144,0.33042c1.12677,-0.2493 2.32114,-0.28214 2.85435,-1.37044c0.01239,-0.59227 -0.09802,-0.66776 -0.44533,-1.19099c-0.8551,-0.69303 -0.93782,-0.73793 -1.05579,-1.81465c0.16078,-0.68755 0.16738,-1.15397 0.70928,-1.63777l0.26282,0.62881c1.02795,-0.18911 2.64061,-0.75016 3.2728,-1.64742c0.12972,-0.51003 -0.09608,-0.90225 -0.28922,-1.40166z" fill="#afb0b1"/><path d="M117.01996,113.17098c0.64152,-0.26942 1.13208,-0.55268 1.81432,-0.53433c1.24136,0.64764 0.46931,2.30826 -0.52951,2.67763c-0.4867,-0.18798 -0.26765,-0.04313 -0.61094,-0.53611z" fill="#dcdbd9"/><path d="M116.45778,111.7257l0.26282,0.62881c0.13326,0.32157 0.20746,0.47575 0.29936,0.81647l0.67387,1.60719c-0.53079,0.4838 -0.2963,0.41443 -0.88954,0.39995c-0.8551,-0.69303 -0.93782,-0.73793 -1.05579,-1.81465c0.16078,-0.68755 0.16738,-1.15397 0.70928,-1.63777z" fill="#898b8b"/><path d="M156.07065,121.1757c0.30724,-0.00628 0.4529,0.01336 0.76191,0.03927c0.13101,0.09673 1.98203,3.12055 2.0081,3.22242c-1.43659,0.24834 -5.80655,0.21679 -7.51288,0.24528c-1.47876,0.0346 -2.91824,0.09818 -4.39394,-0.02221c4.48391,-1.1522 5.222,-1.91974 9.1368,-3.48476z" fill="#d6ceb7"/><path d="M136.70376,105.03621c1.48696,-0.30418 0.98144,0.53997 2.20204,0.72377l0.37564,0.20553c-0.5551,0.24544 -0.98433,0.3684 -1.37414,0.82162c-0.01513,1.28771 -0.23063,4.16443 -1.90317,4.1427c-0.73889,-0.35633 -1.62763,-1.26615 -1.86341,-2.03836c-0.60756,-1.99024 2.03546,-2.72704 2.56304,-3.85526z" fill="#afb0b1"/><path d="M135.66406,107.2265c1.54072,0.37822 0.94861,1.75719 0.41604,2.8096c-1.00976,-0.47398 -0.9993,-1.95612 -0.41604,-2.8096z" fill="#f9f8f8"/><path d="M126.72183,36.40461c1.43273,-0.01851 2.9073,-0.05649 4.33648,-0.04168c-0.09206,1.56212 -0.32543,2.37876 -0.81744,3.87586l0.13552,0.66518l-1.2742,-1.08653c-0.63444,-0.15789 -2.17709,-0.46931 -2.69083,-0.68691c0.11749,-0.88085 0.26862,-1.847 0.31046,-2.72591z" fill="#696a6a"/><path d="M127.922,37.05306c0.85204,-0.02334 2.17838,-0.21486 2.4507,0.75499c-0.18959,0.41363 -0.23611,0.43294 -0.53144,0.76239c-0.85799,0.18621 -2.03788,0.55123 -2.47259,-0.44067c0.1463,-0.59067 0.15097,-0.60998 0.55333,-1.07672z" fill="#f9f8f8"/><path d="M150.28326,101.38214c0.778,-0.12441 1.55504,-0.33766 2.2838,-0.12344c0.47302,0.40687 0.32479,0.24126 0.41475,1.05483l-0.28423,1.32843l0.47157,0.37323c-0.97194,0.60628 -2.60166,0.91786 -3.36341,-0.14034c-0.15692,-0.80408 -0.90531,-0.86508 -1.55392,-0.94748c0.71733,-0.13809 1.17425,-0.34281 1.84345,-0.60933c-0.00821,-0.28873 0.1125,-0.6404 0.18798,-0.93589z" fill="#dcdbd9"/><path d="M150.28326,101.38214c0.778,-0.12441 1.55504,-0.33766 2.2838,-0.12344c0.47302,0.40687 0.32479,0.24126 0.41475,1.05483c-0.9684,0.01239 -1.91813,0.02768 -2.88653,0.00451c-0.00821,-0.28873 0.1125,-0.6404 0.18798,-0.93589z" fill="#696a6a"/><path d="M149.80574,103.87484c0.61996,-0.70204 2.04769,-0.36695 2.89185,-0.23289l0.47157,0.37323c-0.97194,0.60628 -2.60166,0.91786 -3.36341,-0.14034z" fill="#696a6a"/><path d="M73.4258,79.51674c0.14646,-1.875 1.56792,-2.27318 3.10091,-1.42629l1.18085,0.74549c0.5073,0.21663 0.58632,0.37339 0.96406,0.80311c-0.52065,0.22339 -1.37414,0.56073 -1.85858,0.80215l-0.28648,-0.5699c-0.41105,0.07033 -1.01411,0.20874 -1.40086,0.15145c-0.72425,-0.00402 -0.69464,-0.122 -1.19356,0.20456l-0.16577,0.45113c-0.08015,-0.43632 -0.20134,-0.74244 -0.34056,-1.1617z" fill="#d6ceb7"/><path d="M76.52672,78.09045l1.18085,0.74549c0.5073,0.21663 0.58632,0.37339 0.96406,0.80311c-0.52065,0.22339 -1.37414,0.56073 -1.85858,0.80215l-0.28648,-0.5699c-0.07146,-0.89517 -0.17527,-0.87634 -0.87039,-1.33374c0.53932,-0.07741 0.38208,-0.06389 0.87055,-0.4471z" fill="#706059"/><path d="M73.4258,79.51674c0.14646,-1.875 1.56792,-2.27318 3.10091,-1.42629c-0.48847,0.38321 -0.33122,0.36969 -0.87055,0.4471c-0.84995,0.26862 -1.5367,0.4199 -2.23036,0.97918z" fill="#363b3d"/><path d="M209.62822,104.45826c0.89163,-0.34651 0.75322,-0.39737 1.5177,-0.13745c0.33476,0.45129 0.02575,0.89807 -0.33476,1.23637c-0.31223,0.94217 -0.03541,1.44721 0.31384,2.36153c-0.66953,0.01803 -0.71459,-0.02929 -1.34549,-0.30692c-0.30579,-0.88568 -0.25429,-0.9 -1.09603,-1.13273l0.07242,-0.56427c0.24946,-0.76545 0.33315,-0.85139 0.87232,-1.45655z" fill="#a2876d"/><path d="M209.62822,104.45826c0.89163,-0.34651 0.75322,-0.39737 1.5177,-0.13745c0.33476,0.45129 0.02575,0.89807 -0.33476,1.23637c-0.90612,0.14469 -1.49678,0.5823 -2.05526,0.35762c0.24946,-0.76545 0.33315,-0.85139 0.87232,-1.45655z" fill="#525c5e"/><path d="M113.1882,208.57082c0.25413,-0.67597 0.39029,-1.31491 0.94764,-1.71406l0.31255,0.02736c0.52468,0.88036 -0.1125,1.89753 -0.93782,2.32725z" fill="#898b8b"/><path d="M105.5242,125.02999c0.60869,0.00097 0.95842,-0.03573 1.53991,0.14405c-0.90322,0.45998 -2.3897,0.94828 -3.25896,0.2155l0.47961,-0.34651z" fill="#363b3d"/></g></svg></svg>